{
  "accessors": [
    {
      "bufferView": 3,
      "componentType": 5126,
      "count": 1576,
      "max": [
        0.602867841720581,
        1.9465436935424805,
        0.9306023120880127
      ],
      "min": [
        -0.6028680801391602,
        -0.003694891929626465,
        -0.6452928185462952
      ],
      "type": "VEC3"
    },
    {
      "bufferView": 3,
      "byteOffset": 18912,
      "componentType": 5126,
      "count": 1576,
      "max": [
        1.0,
        1.0,
        1.0
      ],
      "min": [
        -1.0,
        -1.0,
        -1.0
      ],
      "type": "VEC3"
    },
    {
      "bufferView": 2,
      "componentType": 5126,
      "count": 1576,
      "max": [
        0.8682644367218018,
        0.11731863021850586
      ],
      "min": [
        0.7614079117774963,
        0.005787789821624756
      ],
      "type": "VEC2"
    },
    {
      "bufferView": 1,
      "componentType": 5125,
      "count": 2916,
      "type": "SCALAR"
    },
    {
      "bufferView": 3,
      "byteOffset": 37824,
      "componentType": 5126,
      "count": 14,
      "max": [
        0.173252671957016,
        1.9113515615463257,
        0.7895392179489136
      ],
      "min": [
        -0.17325350642204285,
        1.426344633102417,
        -0.529590904712677
      ],
      "type": "VEC3"
    },
    {
      "bufferView": 3,
      "byteOffset": 37992,
      "componentType": 5126,
      "count": 14,
      "max": [
        -0.0,
        -0.04420100152492523,
        0.9990226626396179
      ],
      "min": [
        -0.0,
        -0.3639996349811554,
        -0.9313991069793701
      ],
      "type": "VEC3"
    },
    {
      "bufferView": 2,
      "byteOffset": 12608,
      "componentType": 5126,
      "count": 14,
      "max": [
        0.9032787680625916,
        0.11731863021850586
      ],
      "min": [
        0.8267282843589783,
        0.11601245403289795
      ],
      "type": "VEC2"
    },
    {
      "bufferView": 1,
      "byteOffset": 11664,
      "componentType": 5125,
      "count": 30,
      "type": "SCALAR"
    },
    {
      "bufferView": 3,
      "byteOffset": 38160,
      "componentType": 5126,
      "count": 20,
      "max": [
        0.029843522235751152,
        1.9011125564575195,
        0.1682727187871933
      ],
      "min": [
        -0.029843512922525406,
        1.7381716966629028,
        0.09537927061319351
      ],
      "type": "VEC3"
    },
    {
      "bufferView": 3,
      "byteOffset": 38400,
      "componentType": 5126,
      "count": 20,
      "max": [
        1.0,
        1.0,
        0.9652605652809143
      ],
      "min": [
        -1.0,
        -0.8352516293525696,
        -0.549868106842041
      ],
      "type": "VEC3"
    },
    {
      "bufferView": 2,
      "byteOffset": 12720,
      "componentType": 5126,
      "count": 20,
      "max": [
        0.3167259097099304,
        0.4512212872505188
      ],
      "min": [
        0.3167259097099304,
        0.4512212872505188
      ],
      "type": "VEC2"
    },
    {
      "bufferView": 2,
      "byteOffset": 12880,
      "componentType": 5126,
      "count": 20,
      "max": [
        0.3167259097099304,
        0.4512212872505188
      ],
      "min": [
        0.3167259097099304,
        0.4512212872505188
      ],
      "type": "VEC2"
    },
    {
      "bufferView": 1,
      "byteOffset": 11784,
      "componentType": 5125,
      "count": 30,
      "type": "SCALAR"
    },
    {
      "bufferView": 3,
      "byteOffset": 38640,
      "componentType": 5126,
      "count": 1912,
      "max": [
        0.602867841720581,
        2.203187942504883,
        0.8005884289741516
      ],
      "min": [
        -0.6028680801391602,
        -0.003694891929626465,
        -0.6452928185462952
      ],
      "type": "VEC3"
    },
    {
      "bufferView": 3,
      "byteOffset": 61584,
      "componentType": 5126,
      "count": 1912,
      "max": [
        1.0,
        1.0,
        1.0
      ],
      "min": [
        -1.0,
        -1.0,
        -1.0
      ],
      "type": "VEC3"
    },
    {
      "bufferView": 2,
      "byteOffset": 13040,
      "componentType": 5126,
      "count": 1912,
      "max": [
        0.9498506784439087,
        0.11382085084915161
      ],
      "min": [
        0.7527788281440735,
        0.008820712566375732
      ],
      "type": "VEC2"
    },
    {
      "bufferView": 1,
      "byteOffset": 11904,
      "componentType": 5125,
      "count": 3708,
      "type": "SCALAR"
    },
    {
      "bufferView": 3,
      "byteOffset": 84528,
      "componentType": 5126,
      "count": 13,
      "max": [
        0.0939154103398323,
        1.6768299341201782,
        0.6326364278793335
      ],
      "min": [
        -0.23246651887893677,
        1.4804108142852783,
        -0.5859835743904114
      ],
      "type": "VEC3"
    },
    {
      "bufferView": 3,
      "byteOffset": 84684,
      "componentType": 5126,
      "count": 13,
      "max": [
        0.0,
        0.0,
        1.0
      ],
      "min": [
        0.0,
        0.0,
        -1.0
      ],
      "type": "VEC3"
    },
    {
      "bufferView": 2,
      "byteOffset": 28336,
      "componentType": 5126,
      "count": 13,
      "max": [
        0.8976269960403442,
        0.09316080808639526
      ],
      "min": [
        0.8969373106956482,
        0.06801027059555054
      ],
      "type": "VEC2"
    },
    {
      "bufferView": 1,
      "byteOffset": 26736,
      "componentType": 5125,
      "count": 30,
      "type": "SCALAR"
    },
    {
      "bufferView": 3,
      "byteOffset": 84840,
      "componentType": 5126,
      "count": 2193,
      "max": [
        0.602867841720581,
        1.881028413772583,
        0.6961318850517273
      ],
      "min": [
        -0.6028680801391602,
        -0.003694891929626465,
        -0.4838957190513611
      ],
      "type": "VEC3"
    },
    {
      "bufferView": 3,
      "byteOffset": 111156,
      "componentType": 5126,
      "count": 2193,
      "max": [
        1.0,
        1.0,
        1.0
      ],
      "min": [
        -1.0,
        -1.0,
        -1.0
      ],
      "type": "VEC3"
    },
    {
      "bufferView": 2,
      "byteOffset": 28440,
      "componentType": 5126,
      "count": 2193,
      "max": [
        0.9321290254592896,
        0.12109434604644775
      ],
      "min": [
        0.8139143586158752,
        0.02539581060409546
      ],
      "type": "VEC2"
    },
    {
      "bufferView": 1,
      "byteOffset": 26856,
      "componentType": 5125,
      "count": 4737,
      "type": "SCALAR"
    },
    {
      "bufferView": 3,
      "byteOffset": 137472,
      "componentType": 5126,
      "count": 30,
      "max": [
        0.010486677289009094,
        1.837827205657959,
        0.39024847745895386
      ],
      "min": [
        -0.010486447252333164,
        1.7945200204849243,
        0.3133426308631897
      ],
      "type": "VEC3"
    },
    {
      "bufferView": 3,
      "byteOffset": 137832,
      "componentType": 5126,
      "count": 30,
      "max": [
        1.0,
        0.9998736381530762,
        0.9991133809089661
      ],
      "min": [
        -1.0,
        0.0,
        -1.0
      ],
      "type": "VEC3"
    },
    {
      "bufferView": 2,
      "byteOffset": 45984,
      "componentType": 5126,
      "count": 30,
      "max": [
        0.3167259693145752,
        0.4512213468551636
      ],
      "min": [
        0.31672587990760803,
        0.451221227645874
      ],
      "type": "VEC2"
    },
    {
      "bufferView": 2,
      "byteOffset": 46224,
      "componentType": 5126,
      "count": 30,
      "max": [
        0.3167259693145752,
        0.4512213468551636
      ],
      "min": [
        0.31672587990760803,
        0.451221227645874
      ],
      "type": "VEC2"
    },
    {
      "bufferView": 1,
      "byteOffset": 45804,
      "componentType": 5125,
      "count": 54,
      "type": "SCALAR"
    },
    {
      "bufferView": 3,
      "byteOffset": 138192,
      "componentType": 5126,
      "count": 116,
      "max": [
        0.48459917306900024,
        1.8310009241104126,
        0.42478513717651367
      ],
      "min": [
        -0.16410739719867706,
        1.3649221658706665,
        -0.35761111974716187
      ],
      "type": "VEC3"
    },
    {
      "bufferView": 3,
      "byteOffset": 139584,
      "componentType": 5126,
      "count": 116,
      "max": [
        0.9917454719543457,
        1.0,
        1.0
      ],
      "min": [
        -1.0,
        -1.0,
        -1.0
      ],
      "type": "VEC3"
    },
    {
      "bufferView": 2,
      "byteOffset": 46464,
      "componentType": 5126,
      "count": 116,
      "max": [
        0.8191720247268677,
        0.11129212379455566
      ],
      "min": [
        0.8123645782470703,
        0.08056628704071045
      ],
      "type": "VEC2"
    },
    {
      "bufferView": 1,
      "byteOffset": 46020,
      "componentType": 5125,
      "count": 492,
      "type": "SCALAR"
    },
    {
      "bufferView": 3,
      "byteOffset": 140976,
      "componentType": 5126,
      "count": 1895,
      "max": [
        3.896528959274292,
        1.7824101448059082,
        0.9350597262382507
      ],
      "min": [
        2.103471040725708,
        0.9695534706115723,
        -0.759391188621521
      ],
      "type": "VEC3"
    },
    {
      "bufferView": 3,
      "byteOffset": 163716,
      "componentType": 5126,
      "count": 1895,
      "max": [
        1.0,
        1.0,
        1.0
      ],
      "min": [
        -1.0,
        -1.0,
        -1.0
      ],
      "type": "VEC3"
    },
    {
      "bufferView": 2,
      "byteOffset": 47392,
      "componentType": 5126,
      "count": 1895,
      "max": [
        0.9433561563491821,
        0.10362792015075684
      ],
      "min": [
        0.6880294680595398,
        0.07721126079559326
      ],
      "type": "VEC2"
    },
    {
      "bufferView": 1,
      "byteOffset": 47988,
      "componentType": 5125,
      "count": 4914,
      "type": "SCALAR"
    },
    {
      "bufferView": 3,
      "byteOffset": 186456,
      "componentType": 5126,
      "count": 60,
      "max": [
        3.1347548961639404,
        1.289433240890503,
        0.9428398013114929
      ],
      "min": [
        2.8652451038360596,
        1.019923448562622,
        0.9080628752708435
      ],
      "type": "VEC3"
    },
    {
      "bufferView": 3,
      "byteOffset": 187176,
      "componentType": 5126,
      "count": 60,
      "max": [
        0.5760902166366577,
        0.5760902166366577,
        0.9996975064277649
      ],
      "min": [
        -0.5760902166366577,
        -0.5760902166366577,
        0.8173861503601074
      ],
      "type": "VEC3"
    },
    {
      "bufferView": 2,
      "byteOffset": 62552,
      "componentType": 5126,
      "count": 60,
      "max": [
        0.9476324319839478,
        0.11614656448364258
      ],
      "min": [
        0.9476324319839478,
        0.11614656448364258
      ],
      "type": "VEC2"
    },
    {
      "bufferView": 1,
      "byteOffset": 67644,
      "componentType": 5125,
      "count": 318,
      "type": "SCALAR"
    },
    {
      "bufferView": 3,
      "byteOffset": 187896,
      "componentType": 5126,
      "count": 40,
      "max": [
        3.017848014831543,
        1.6460193395614624,
        0.46088793873786926
      ],
      "min": [
        2.982151985168457,
        1.519608497619629,
        0.3946985900402069
      ],
      "type": "VEC3"
    },
    {
      "bufferView": 3,
      "byteOffset": 188376,
      "componentType": 5126,
      "count": 40,
      "max": [
        0.9999736547470093,
        0.9644956588745117,
        0.9996774196624756
      ],
      "min": [
        -0.9999736547470093,
        -0.9818033576011658,
        -0.9678600430488586
      ],
      "type": "VEC3"
    },
    {
      "bufferView": 2,
      "byteOffset": 63032,
      "componentType": 5126,
      "count": 40,
      "max": [
        0.3195224404335022,
        0.45147526264190674
      ],
      "min": [
        0.3195224404335022,
        0.45147526264190674
      ],
      "type": "VEC2"
    },
    {
      "bufferView": 1,
      "byteOffset": 68916,
      "componentType": 5125,
      "count": 84,
      "type": "SCALAR"
    },
    {
      "bufferView": 5,
      "componentType": 5126,
      "count": 6,
      "max": [
        1.0,
        0.0,
        0.0,
        0.0,
        0.0,
        1.0,
        0.0,
        0.0,
        0.0,
        0.0,
        1.0,
        0.0,
        0.0,
        0.0,
        0.4050712585449219,
        1.0
      ],
      "min": [
        1.0,
        0.0,
        0.0,
        0.0,
        0.0,
        1.0,
        0.0,
        0.0,
        0.0,
        0.0,
        1.0,
        0.0,
        -3.5422091484069824,
        -1.7116584777832031,
        -0.4050712585449219,
        1.0
      ],
      "type": "MAT4"
    },
    {
      "bufferView": 0,
      "componentType": 5123,
      "count": 1895,
      "type": "VEC4"
    },
    {
      "bufferView": 4,
      "componentType": 5126,
      "count": 1895,
      "max": [
        1.0,
        0.0,
        0.0,
        0.0
      ],
      "min": [
        1.0,
        0.0,
        0.0,
        0.0
      ],
      "type": "VEC4"
    },
    {
      "bufferView": 0,
      "byteOffset": 15160,
      "componentType": 5123,
      "count": 60,
      "type": "VEC4"
    },
    {
      "bufferView": 4,
      "byteOffset": 30320,
      "componentType": 5126,
      "count": 60,
      "max": [
        1.0,
        0.0,
        0.0,
        0.0
      ],
      "min": [
        1.0,
        0.0,
        0.0,
        0.0
      ],
      "type": "VEC4"
    },
    {
      "bufferView": 0,
      "byteOffset": 15640,
      "componentType": 5123,
      "count": 40,
      "type": "VEC4"
    },
    {
      "bufferView": 4,
      "byteOffset": 31280,
      "componentType": 5126,
      "count": 40,
      "max": [
        1.0,
        0.0,
        0.0,
        0.0
      ],
      "min": [
        1.0,
        0.0,
        0.0,
        0.0
      ],
      "type": "VEC4"
    },
    {
      "bufferView": 6,
      "componentType": 5126,
      "count": 25,
      "max": [
        1.0
      ],
      "min": [
        0.0
      ],
      "type": "SCALAR"
    },
    {
      "bufferView": 7,
      "componentType": 5126,
      "count": 25,
      "max": [
        0.0,
        0.0,
        0.0,
        1.0
      ],
      "min": [
        0.0,
        -0.8660253882408142,
        0.0,
        0.5
      ],
      "type": "VEC4"
    },
    {
      "bufferView": 6,
      "byteOffset": 100,
      "componentType": 5126,
      "count": 25,
      "max": [
        1.0
      ],
      "min": [
        0.0
      ],
      "type": "SCALAR"
    },
    {
      "bufferView": 7,
      "byteOffset": 400,
      "componentType": 5126,
      "count": 25,
      "max": [
        0.0,
        0.0,
        0.0,
        1.0
      ],
      "min": [
        0.0,
        -0.8660253882408142,
        0.0,
        0.5
      ],
      "type": "VEC4"
    },
    {
      "bufferView": 6,
      "byteOffset": 200,
      "componentType": 5126,
      "count": 25,
      "max": [
        1.0
      ],
      "min": [
        0.0
      ],
      "type": "SCALAR"
    },
    {
      "bufferView": 7,
      "byteOffset": 800,
      "componentType": 5126,
      "count": 25,
      "max": [
        0.0,
        0.8660253882408142,
        0.0,
        1.0
      ],
      "min": [
        0.0,
        0.0,
        0.0,
        0.5
      ],
      "type": "VEC4"
    },
    {
      "bufferView": 6,
      "byteOffset": 300,
      "componentType": 5126,
      "count": 25,
      "max": [
        1.0
      ],
      "min": [
        0.0
      ],
      "type": "SCALAR"
    },
    {
      "bufferView": 7,
      "byteOffset": 1200,
      "componentType": 5126,
      "count": 25,
      "max": [
        0.0,
        0.8660253882408142,
        0.0,
        1.0
      ],
      "min": [
        0.0,
        0.0,
        0.0,
        0.5
      ],
      "type": "VEC4"
    }
  ],
  "animations": [
    {
      "channels": [
        {
          "sampler": 0,
          "target": {
            "node": 22,
            "path": "rotation"
          }
        },
        {
          "sampler": 1,
          "target": {
            "node": 23,
            "path": "rotation"
          }
        },
        {
          "sampler": 2,
          "target": {
            "node": 24,
            "path": "rotation"
          }
        },
        {
          "sampler": 3,
          "target": {
            "node": 25,
            "path": "rotation"
          }
        }
      ],
      "name": "0_idle",
      "samplers": [
        {
          "input": 53,
          "interpolation": "LINEAR",
          "output": 54
        },
        {
          "input": 55,
          "interpolation": "LINEAR",
          "output": 56
        },
        {
          "input": 57,
          "interpolation": "LINEAR",
          "output": 58
        },
        {
          "input": 59,
          "interpolation": "LINEAR",
          "output": 60
        }
      ]
    }
  ],
  "asset": {
    "extras": {
      "author": "JeffK (https://sketchfab.com/jeffkolada)",
      "license": "CC-BY-NC-SA-4.0 (http://creativecommons.org/licenses/by-nc-sa/4.0/)",
      "source": "https://sketchfab.com/3d-models/set-of-four-4-low-poly-cameras-275be0c563754a038c0a50f19785a8ea",
      "title": "Set of four (4) low-poly Cameras"
    },
    "generator": "Sketchfab-16.33.0",
    "version": "2.0"
  },
  "bufferViews": [
    {
      "buffer": 0,
      "byteLength": 15960,
      "byteStride": 8,
      "name": "shortBufferViews",
      "target": 34962
    },
    {
      "buffer": 0,
      "byteLength": 69252,
      "byteOffset": 15960,
      "name": "floatBufferViews",
      "target": 34963
    },
    {
      "buffer": 0,
      "byteLength": 63352,
      "byteOffset": 85212,
      "byteStride": 8,
      "name": "floatBufferViews",
      "target": 34962
    },
    {
      "buffer": 0,
      "byteLength": 188856,
      "byteOffset": 148564,
      "byteStride": 12,
      "name": "floatBufferViews",
      "target": 34962
    },
    {
      "buffer": 0,
      "byteLength": 31920,
      "byteOffset": 337420,
      "byteStride": 16,
      "name": "floatBufferViews",
      "target": 34962
    },
    {
      "buffer": 0,
      "byteLength": 384,
      "byteOffset": 369340,
      "name": "floatBufferViews"
    },
    {
      "buffer": 0,
      "byteLength": 400,
      "byteOffset": 369724,
      "name": "floatBufferViews"
    },
    {
      "buffer": 0,
      "byteLength": 1600,
      "byteOffset": 370124,
      "byteStride": 16,
      "name": "floatBufferViews"
    }
  ],
  "buffers": [
    {
      "byteLength": 371724,
      "uri": "scene.bin"
    }
  ],
  "extensionsUsed": [
    "KHR_materials_specular",
    "KHR_materials_emissive_strength"
  ],
  "images": [
    {
      "uri": "textures/color-palette_baseColor.png"
    },
    {
      "uri": "textures/color-palette_specularf0.png"
    }
  ],
  "materials": [
    {
      "doubleSided": true,
      "extensions": {
        "KHR_materials_specular": {
          "specularColorFactor": [
            1.0,
            1.0,
            1.0
          ],
          "specularFactor": 1.0,
          "specularTexture": {
            "index": 1
          }
        }
      },
      "name": "color-palette",
      "pbrMetallicRoughness": {
        "baseColorTexture": {
          "index": 0
        },
        "metallicFactor": 0.0,
        "roughnessFactor": 0.75
      }
    },
    {
      "doubleSided": true,
      "extensions": {
        "KHR_materials_specular": {
          "specularColorFactor": [
            1.0,
            1.0,
            1.0
          ],
          "specularFactor": 1.0
        }
      },
      "name": "color-palette.metallic",
      "pbrMetallicRoughness": {
        "baseColorTexture": {
          "index": 0
        },
        "metallicFactor": 0.684091,
        "roughnessFactor": 0.1
      }
    },
    {
      "doubleSided": true,
      "emissiveFactor": [
        1.0,
        1.0,
        1.0
      ],
      "emissiveTexture": {
        "index": 0
      },
      "extensions": {
        "KHR_materials_emissive_strength": {
          "emissiveStrength": 4.0
        }
      },
      "name": "color-palette.emission",
      "pbrMetallicRoughness": {
        "baseColorTexture": {
          "index": 0
        },
        "metallicFactor": 0.0,
        "roughnessFactor": 0.5
      }
    },
    {
      "doubleSided": true,
      "extensions": {
        "KHR_materials_specular": {
          "specularColorFactor": [
            1.0,
            1.0,
            1.0
          ],
          "specularFactor": 1.0,
          "specularTexture": {
            "index": 1
          }
        }
      },
      "name": "color-palette_0",
      "pbrMetallicRoughness": {
        "baseColorTexture": {
          "index": 0
        },
        "metallicFactor": 0.0,
        "roughnessFactor": 0.75
      }
    },
    {
      "doubleSided": true,
      "extensions": {
        "KHR_materials_emissive_strength": {
          "emissiveStrength": 1.4476234594238764
        },
        "KHR_materials_specular": {
          "specularColorFactor": [
            1.0,
            1.0,
            1.0
          ],
          "specularFactor": 1.0
        }
      },
      "name": "color-palette.metallic_0",
      "pbrMetallicRoughness": {
        "baseColorTexture": {
          "index": 0
        },
        "metallicFactor": 0.684091,
        "roughnessFactor": 0.1
      }
    },
    {
      "doubleSided": true,
      "emissiveFactor": [
        1.0,
        1.0,
        1.0
      ],
      "emissiveTexture": {
        "index": 0
      },
      "extensions": {
        "KHR_materials_emissive_strength": {
          "emissiveStrength": 4.0
        }
      },
      "name": "color-palette.emission_0",
      "pbrMetallicRoughness": {
        "baseColorTexture": {
          "index": 0
        },
        "metallicFactor": 0.0,
        "roughnessFactor": 0.5
      }
    }
  ],
  "meshes": [
    {
      "name": "Object_0",
      "primitives": [
        {
          "attributes": {
            "NORMAL": 1,
            "POSITION": 0,
            "TEXCOORD_0": 2
          },
          "indices": 3,
          "material": 0,
          "mode": 4
        }
      ]
    },
    {
      "name": "Object_1",
      "primitives": [
        {
          "attributes": {
            "NORMAL": 5,
            "POSITION": 4,
            "TEXCOORD_0": 6
          },
          "indices": 7,
          "material": 1,
          "mode": 4
        }
      ]
    },
    {
      "name": "Object_2",
      "primitives": [
        {
          "attributes": {
            "NORMAL": 9,
            "POSITION": 8,
            "TEXCOORD_0": 10,
            "TEXCOORD_1": 11
          },
          "indices": 12,
          "material": 2,
          "mode": 4
        }
      ]
    },
    {
      "name": "Object_3",
      "primitives": [
        {
          "attributes": {
            "NORMAL": 14,
            "POSITION": 13,
            "TEXCOORD_0": 15
          },
          "indices": 16,
          "material": 0,
          "mode": 4
        }
      ]
    },
    {
      "name": "Object_4",
      "primitives": [
        {
          "attributes": {
            "NORMAL": 18,
            "POSITION": 17,
            "TEXCOORD_0": 19
          },
          "indices": 20,
          "material": 1,
          "mode": 4
        }
      ]
    },
    {
      "name": "Object_5",
      "primitives": [
        {
          "attributes": {
            "NORMAL": 22,
            "POSITION": 21,
            "TEXCOORD_0": 23
          },
          "indices": 24,
          "material": 0,
          "mode": 4
        }
      ]
    },
    {
      "name": "Object_6",
      "primitives": [
        {
          "attributes": {
            "NORMAL": 26,
            "POSITION": 25,
            "TEXCOORD_0": 27,
            "TEXCOORD_1": 28
          },
          "indices": 29,
          "material": 2,
          "mode": 4
        }
      ]
    },
    {
      "name": "Object_7",
      "primitives": [
        {
          "attributes": {
            "NORMAL": 31,
            "POSITION": 30,
            "TEXCOORD_0": 32
          },
          "indices": 33,
          "material": 1,
          "mode": 4
        }
      ]
    },
    {
      "name": "Object_8",
      "primitives": [
        {
          "attributes": {
            "JOINTS_0": 47,
            "NORMAL": 35,
            "POSITION": 34,
            "TEXCOORD_0": 36,
            "WEIGHTS_0": 48
          },
          "indices": 37,
          "material": 3,
          "mode": 4
        }
      ]
    },
    {
      "name": "Object_9",
      "primitives": [
        {
          "attributes": {
            "JOINTS_0": 49,
            "NORMAL": 39,
            "POSITION": 38,
            "TEXCOORD_0": 40,
            "WEIGHTS_0": 50
          },
          "indices": 41,
          "material": 4,
          "mode": 4
        }
      ]
    },
    {
      "name": "Object_10",
      "primitives": [
        {
          "attributes": {
            "JOINTS_0": 51,
            "NORMAL": 43,
            "POSITION": 42,
            "TEXCOORD_0": 44,
            "TEXCOORD_1": 44,
            "WEIGHTS_0": 52
          },
          "indices": 45,
          "material": 5,
          "mode": 4
        }
      ]
    }
  ],
  "nodes": [
    {
      "children": [
        1
      ],
      "matrix": [
        1.0,
        0.0,
        0.0,
        0.0,
        0.0,
        2.220446049250313e-16,
        -1.0,
        0.0,
        0.0,
        1.0,
        2.220446049250313e-16,
        0.0,
        0.0,
        0.0,
        0.0,
        1.0
      ],
      "name": "Sketchfab_model"
    },
    {
      "children": [
        2
      ],
      "name": "root"
    },
    {
      "children": [
        3,
        7,
        10,
        14
      ],
      "matrix": [
        1.0,
        0.0,
        0.0,
        0.0,
        0.0,
        2.220446049250313e-16,
        1.0,
        0.0,
        0.0,
        -1.0,
        2.220446049250313e-16,
        0.0,
        0.0,
        0.0,
        0.0,
        1.0
      ],
      "name": "GLTF_SceneRootNode"
    },
    {
      "children": [
        4,
        5,
        6
      ],
      "matrix": [
        1.0,
        0.0,
        0.0,
        0.0,
        0.0,
        1.0,
        0.0,
        0.0,
        0.0,
        0.0,
        1.0,
        0.0,
        -1.0,
        0.0,
        0.0,
        1.0
      ],
      "name": "broadcastCamera.002_0"
    },
    {
      "mesh": 0,
      "name": "Object_4"
    },
    {
      "mesh": 1,
      "name": "Object_5"
    },
    {
      "mesh": 2,
      "name": "Object_6"
    },
    {
      "children": [
        8,
        9
      ],
      "matrix": [
        1.0,
        0.0,
        0.0,
        0.0,
        0.0,
        1.0,
        0.0,
        0.0,
        0.0,
        0.0,
        1.0,
        0.0,
        -3.0,
        0.0,
        0.0,
        1.0
      ],
      "name": "filmCameraMerged.003_1"
    },
    {
      "mesh": 3,
      "name": "Object_8"
    },
    {
      "mesh": 4,
      "name": "Object_9"
    },
    {
      "children": [
        11,
        12,
        13
      ],
      "matrix": [
        1.0,
        0.0,
        0.0,
        0.0,
        0.0,
        1.0,
        0.0,
        0.0,
        0.0,
        0.0,
        1.0,
        0.0,
        1.0,
        0.0,
        0.0,
        1.0
      ],
      "name": "videoCameraMerged.003_2"
    },
    {
      "mesh": 5,
      "name": "Object_11"
    },
    {
      "mesh": 6,
      "name": "Object_12"
    },
    {
      "mesh": 7,
      "name": "Object_13"
    },
    {
      "children": [
        15
      ],
      "matrix": [
        1.0,
        0.0,
        0.0,
        0.0,
        0.0,
        1.0,
        0.0,
        0.0,
        0.0,
        0.0,
        1.0,
        0.0,
        3.0,
        0.0,
        0.0,
        1.0
      ],
      "name": "droneArmature.001_9"
    },
    {
      "children": [
        16,
        18,
        19,
        20,
        17
      ],
      "name": "GLTF_created_0"
    },
    {
      "children": [
        21
      ],
      "name": "GLTF_created_0_rootJoint"
    },
    {
      "name": "drone-rotor-wings.003_8"
    },
    {
      "mesh": 8,
      "name": "Object_18",
      "skin": 0
    },
    {
      "mesh": 9,
      "name": "Object_19",
      "skin": 0
    },
    {
      "mesh": 10,
      "name": "Object_20",
      "skin": 0
    },
    {
      "children": [
        22,
        23,
        24,
        25
      ],
      "name": "Base_7",
      "translation": [
        0.012310266494750977,
        1.7116584777832031,
        0.013668805360794067
      ]
    },
    {
      "name": "WingFR_3",
      "translation": [
        -0.5545194149017334,
        0.0,
        0.3914024531841278
      ]
    },
    {
      "name": "WingBL_4",
      "translation": [
        0.5298988819122314,
        0.0,
        -0.41874006390571594
      ]
    },
    {
      "name": "WingBR_5",
      "translation": [
        -0.5545194149017334,
        0.0,
        -0.41874006390571594
      ]
    },
    {
      "name": "WingFL_6",
      "translation": [
        0.5298988819122314,
        0.0,
        0.3914024531841278
      ]
    }
  ],
  "samplers": [
    {
      "magFilter": 9729,
      "minFilter": 9987,
      "wrapS": 10497,
      "wrapT": 10497
    }
  ],
  "scene": 0,
  "scenes": [
    {
      "name": "Sketchfab_Scene",
      "nodes": [
        0
      ]
    }
  ],
  "skins": [
    {
      "inverseBindMatrices": 46,
      "joints": [
        16,
        21,
        22,
        23,
        24,
        25
      ],
      "skeleton": 16
    }
  ],
  "textures": [
    {
      "sampler": 0,
      "source": 0
    },
    {
      "sampler": 0,
      "source": 1
    }
  ]
}
