# Blender 4.4.1
# www.blender.org
mtllib Untitled.mtl
o Cube
v 2.845310 4.175703 -0.035323
v 2.845310 -4.175703 -0.035323
v 2.845310 4.175703 0.035323
v 2.845310 -4.175703 0.035323
v -2.845310 4.175703 -0.035323
v -2.845310 -4.175703 -0.035323
v -2.845310 4.175703 0.035323
v -2.845310 -4.175703 0.035323
vn -0.0000 1.0000 -0.0000
vn -0.0000 -0.0000 1.0000
vn -1.0000 -0.0000 -0.0000
vn -0.0000 -1.0000 -0.0000
vn 1.0000 -0.0000 -0.0000
vn -0.0000 -0.0000 -1.0000
vt 1.000000 -0.000000
vt 1.000000 0.490859
vt 0.993906 0.490859
vt 0.993906 -0.000000
vt 0.000000 0.720372
vt 0.000000 0.000000
vt 0.490859 0.000000
vt 0.490859 0.720372
vt 0.981719 0.720372
vt 0.981719 0.000000
vt 0.987812 0.000000
vt 0.987812 0.720372
vt 1.000000 0.490859
vt 1.000000 0.981719
vt 0.993906 0.981719
vt 0.993906 0.490859
vt 0.993906 0.000000
vt 0.993906 0.720372
vt 0.490859 0.720372
vt 0.490859 0.000000
vt 0.981719 0.000000
vt 0.981719 0.720372
s 0
usemtl Material
f 1/1/1 5/2/1 7/3/1 3/4/1
f 4/5/2 3/6/2 7/7/2 8/8/2
f 8/9/3 7/10/3 5/11/3 6/12/3
f 6/13/4 2/14/4 4/15/4 8/16/4
f 2/12/5 1/11/5 3/17/5 4/18/5
f 6/19/6 5/20/6 1/21/6 2/22/6
