{
  "accessors": [
    {
      "bufferView": 2,
      "componentType": 5126,
      "count": 2304,
      "max": [
        1.25,
        1.25,
        0.25
      ],
      "min": [
        -1.25,
        -1.25,
        -0.25
      ],
      "type": "VEC3"
    },
    {
      "bufferView": 2,
      "byteOffset": 27648,
      "componentType": 5126,
      "count": 2304,
      "type": "VEC3"
    },
    {
      "bufferView": 1,
      "componentType": 5126,
      "count": 2304,
      "type": "VEC2"
    },
    {
      "bufferView": 0,
      "componentType": 5125,
      "count": 3456,
      "type": "SCALAR"
    },
    {
      "bufferView": 2,
      "byteOffset": 55296,
      "componentType": 5126,
      "count": 2304,
      "max": [
        1.25,
        1.25,
        0.25
      ],
      "min": [
        -1.25,
        -1.25,
        -0.25
      ],
      "type": "VEC3"
    },
    {
      "bufferView": 2,
      "byteOffset": 82944,
      "componentType": 5126,
      "count": 2304,
      "type": "VEC3"
    },
    {
      "bufferView": 1,
      "byteOffset": 18432,
      "componentType": 5126,
      "count": 2304,
      "type": "VEC2"
    },
    {
      "bufferView": 0,
      "byteOffset": 13824,
      "componentType": 5125,
      "count": 3456,
      "type": "SCALAR"
    },
    {
      "bufferView": 2,
      "byteOffset": 110592,
      "componentType": 5126,
      "count": 932,
      "max": [
        1.0796128511428833,
        1.0796128511428833,
        1.1494388580322266
      ],
      "min": [
        -1.0796128511428833,
        -1.0796128511428833,
        -1.0
      ],
      "type": "VEC3"
    },
    {
      "bufferView": 2,
      "byteOffset": 121776,
      "componentType": 5126,
      "count": 932,
      "type": "VEC3"
    },
    {
      "bufferView": 1,
      "byteOffset": 36864,
      "componentType": 5126,
      "count": 932,
      "type": "VEC2"
    },
    {
      "bufferView": 0,
      "byteOffset": 27648,
      "componentType": 5125,
      "count": 4614,
      "type": "SCALAR"
    },
    {
      "bufferView": 2,
      "byteOffset": 132960,
      "componentType": 5126,
      "count": 32,
      "max": [
        0.8603184819221497,
        0.8603184819221497,
        0.7277006506919861
      ],
      "min": [
        -0.8603184819221497,
        -0.8603184819221497,
        0.7277006506919861
      ],
      "type": "VEC3"
    },
    {
      "bufferView": 2,
      "byteOffset": 133344,
      "componentType": 5126,
      "count": 32,
      "type": "VEC3"
    },
    {
      "bufferView": 1,
      "byteOffset": 44320,
      "componentType": 5126,
      "count": 32,
      "type": "VEC2"
    },
    {
      "bufferView": 0,
      "byteOffset": 46104,
      "componentType": 5125,
      "count": 90,
      "type": "SCALAR"
    },
    {
      "bufferView": 2,
      "byteOffset": 133728,
      "componentType": 5126,
      "count": 16,
      "max": [
        0.5698245763778687,
        -0.7881160974502563,
        -0.4396674633026123
      ],
      "min": [
        -0.24452465772628784,
        -0.9871999621391296,
        -0.6759657859802246
      ],
      "type": "VEC3"
    },
    {
      "bufferView": 2,
      "byteOffset": 133920,
      "componentType": 5126,
      "count": 16,
      "type": "VEC3"
    },
    {
      "bufferView": 1,
      "byteOffset": 44576,
      "componentType": 5126,
      "count": 16,
      "type": "VEC2"
    },
    {
      "bufferView": 0,
      "byteOffset": 46464,
      "componentType": 5125,
      "count": 36,
      "type": "SCALAR"
    },
    {
      "bufferView": 2,
      "byteOffset": 134112,
      "componentType": 5126,
      "count": 14,
      "max": [
        0.6105598211288452,
        -0.837752103805542,
        -0.4396674633026123
      ],
      "min": [
        -0.2631641626358032,
        -1.0514112710952759,
        -0.6759657859802246
      ],
      "type": "VEC3"
    },
    {
      "bufferView": 2,
      "byteOffset": 134280,
      "componentType": 5126,
      "count": 14,
      "type": "VEC3"
    },
    {
      "bufferView": 1,
      "byteOffset": 44704,
      "componentType": 5126,
      "count": 14,
      "type": "VEC2"
    },
    {
      "bufferView": 0,
      "byteOffset": 46608,
      "componentType": 5125,
      "count": 36,
      "type": "SCALAR"
    },
    {
      "bufferView": 2,
      "byteOffset": 134448,
      "componentType": 5126,
      "count": 132,
      "max": [
        1.0328481197357178,
        1.0328481197357178,
        0.06969432532787323
      ],
      "min": [
        -1.0328481197357178,
        -1.0328481197357178,
        -0.02658446878194809
      ],
      "type": "VEC3"
    },
    {
      "bufferView": 2,
      "byteOffset": 136032,
      "componentType": 5126,
      "count": 132,
      "type": "VEC3"
    },
    {
      "bufferView": 1,
      "byteOffset": 44816,
      "componentType": 5126,
      "count": 132,
      "type": "VEC2"
    },
    {
      "bufferView": 0,
      "byteOffset": 46752,
      "componentType": 5125,
      "count": 576,
      "type": "SCALAR"
    },
    {
      "bufferView": 2,
      "byteOffset": 137616,
      "componentType": 5126,
      "count": 192,
      "max": [
        1.0,
        1.0,
        1.0
      ],
      "min": [
        -1.0,
        -1.0,
        -1.0
      ],
      "type": "VEC3"
    },
    {
      "bufferView": 2,
      "byteOffset": 139920,
      "componentType": 5126,
      "count": 192,
      "type": "VEC3"
    },
    {
      "bufferView": 1,
      "byteOffset": 45872,
      "componentType": 5126,
      "count": 192,
      "type": "VEC2"
    },
    {
      "bufferView": 0,
      "byteOffset": 49056,
      "componentType": 5125,
      "count": 372,
      "type": "SCALAR"
    },
    {
      "bufferView": 2,
      "byteOffset": 142224,
      "componentType": 5126,
      "count": 192,
      "max": [
        1.0,
        1.0,
        1.0
      ],
      "min": [
        -1.0,
        -1.0,
        -1.0
      ],
      "type": "VEC3"
    },
    {
      "bufferView": 2,
      "byteOffset": 144528,
      "componentType": 5126,
      "count": 192,
      "type": "VEC3"
    },
    {
      "bufferView": 1,
      "byteOffset": 47408,
      "componentType": 5126,
      "count": 192,
      "type": "VEC2"
    },
    {
      "bufferView": 0,
      "byteOffset": 50544,
      "componentType": 5125,
      "count": 372,
      "type": "SCALAR"
    },
    {
      "bufferView": 2,
      "byteOffset": 146832,
      "componentType": 5126,
      "count": 192,
      "max": [
        1.0,
        1.0,
        1.0
      ],
      "min": [
        -1.0,
        -1.0,
        -1.0
      ],
      "type": "VEC3"
    },
    {
      "bufferView": 2,
      "byteOffset": 149136,
      "componentType": 5126,
      "count": 192,
      "type": "VEC3"
    },
    {
      "bufferView": 1,
      "byteOffset": 48944,
      "componentType": 5126,
      "count": 192,
      "type": "VEC2"
    },
    {
      "bufferView": 0,
      "byteOffset": 52032,
      "componentType": 5125,
      "count": 372,
      "type": "SCALAR"
    },
    {
      "bufferView": 2,
      "byteOffset": 151440,
      "componentType": 5126,
      "count": 192,
      "max": [
        1.0,
        1.0,
        1.0
      ],
      "min": [
        -1.0,
        -1.0,
        -1.0
      ],
      "type": "VEC3"
    },
    {
      "bufferView": 2,
      "byteOffset": 153744,
      "componentType": 5126,
      "count": 192,
      "type": "VEC3"
    },
    {
      "bufferView": 1,
      "byteOffset": 50480,
      "componentType": 5126,
      "count": 192,
      "type": "VEC2"
    },
    {
      "bufferView": 0,
      "byteOffset": 53520,
      "componentType": 5125,
      "count": 372,
      "type": "SCALAR"
    },
    {
      "bufferView": 2,
      "byteOffset": 156048,
      "componentType": 5126,
      "count": 192,
      "max": [
        1.0,
        1.0,
        1.0
      ],
      "min": [
        -1.0,
        -1.0,
        -1.0
      ],
      "type": "VEC3"
    },
    {
      "bufferView": 2,
      "byteOffset": 158352,
      "componentType": 5126,
      "count": 192,
      "type": "VEC3"
    },
    {
      "bufferView": 1,
      "byteOffset": 52016,
      "componentType": 5126,
      "count": 192,
      "type": "VEC2"
    },
    {
      "bufferView": 0,
      "byteOffset": 55008,
      "componentType": 5125,
      "count": 372,
      "type": "SCALAR"
    },
    {
      "bufferView": 2,
      "byteOffset": 160656,
      "componentType": 5126,
      "count": 192,
      "max": [
        1.0,
        1.0,
        1.0
      ],
      "min": [
        -1.0,
        -1.0,
        -1.0
      ],
      "type": "VEC3"
    },
    {
      "bufferView": 2,
      "byteOffset": 162960,
      "componentType": 5126,
      "count": 192,
      "type": "VEC3"
    },
    {
      "bufferView": 1,
      "byteOffset": 53552,
      "componentType": 5126,
      "count": 192,
      "type": "VEC2"
    },
    {
      "bufferView": 0,
      "byteOffset": 56496,
      "componentType": 5125,
      "count": 372,
      "type": "SCALAR"
    },
    {
      "bufferView": 2,
      "byteOffset": 165264,
      "componentType": 5126,
      "count": 192,
      "max": [
        1.0,
        1.0,
        1.0
      ],
      "min": [
        -1.0,
        -1.0,
        -1.0
      ],
      "type": "VEC3"
    },
    {
      "bufferView": 2,
      "byteOffset": 167568,
      "componentType": 5126,
      "count": 192,
      "type": "VEC3"
    },
    {
      "bufferView": 1,
      "byteOffset": 55088,
      "componentType": 5126,
      "count": 192,
      "type": "VEC2"
    },
    {
      "bufferView": 0,
      "byteOffset": 57984,
      "componentType": 5125,
      "count": 372,
      "type": "SCALAR"
    },
    {
      "bufferView": 2,
      "byteOffset": 169872,
      "componentType": 5126,
      "count": 192,
      "max": [
        1.0,
        1.0,
        1.0
      ],
      "min": [
        -1.0,
        -1.0,
        -1.0
      ],
      "type": "VEC3"
    },
    {
      "bufferView": 2,
      "byteOffset": 172176,
      "componentType": 5126,
      "count": 192,
      "type": "VEC3"
    },
    {
      "bufferView": 1,
      "byteOffset": 56624,
      "componentType": 5126,
      "count": 192,
      "type": "VEC2"
    },
    {
      "bufferView": 0,
      "byteOffset": 59472,
      "componentType": 5125,
      "count": 372,
      "type": "SCALAR"
    },
    {
      "bufferView": 2,
      "byteOffset": 174480,
      "componentType": 5126,
      "count": 192,
      "max": [
        1.0,
        1.0,
        1.0
      ],
      "min": [
        -1.0,
        -1.0,
        -1.0
      ],
      "type": "VEC3"
    },
    {
      "bufferView": 2,
      "byteOffset": 176784,
      "componentType": 5126,
      "count": 192,
      "type": "VEC3"
    },
    {
      "bufferView": 1,
      "byteOffset": 58160,
      "componentType": 5126,
      "count": 192,
      "type": "VEC2"
    },
    {
      "bufferView": 0,
      "byteOffset": 60960,
      "componentType": 5125,
      "count": 372,
      "type": "SCALAR"
    },
    {
      "bufferView": 2,
      "byteOffset": 179088,
      "componentType": 5126,
      "count": 462,
      "max": [
        1.0,
        1.0,
        1.842735767364502
      ],
      "min": [
        -1.0,
        -1.0,
        -3.0219156742095947
      ],
      "type": "VEC3"
    },
    {
      "bufferView": 2,
      "byteOffset": 184632,
      "componentType": 5126,
      "count": 462,
      "type": "VEC3"
    },
    {
      "bufferView": 1,
      "byteOffset": 59696,
      "componentType": 5126,
      "count": 462,
      "type": "VEC2"
    },
    {
      "bufferView": 0,
      "byteOffset": 62448,
      "componentType": 5125,
      "count": 954,
      "type": "SCALAR"
    },
    {
      "bufferView": 2,
      "byteOffset": 190176,
      "componentType": 5126,
      "count": 8,
      "max": [
        0.5949341058731079,
        0.5784536004066467,
        1.24078369140625
      ],
      "min": [
        -0.5835565328598022,
        -0.5875795483589172,
        0.8584846258163452
      ],
      "type": "VEC3"
    },
    {
      "bufferView": 2,
      "byteOffset": 190272,
      "componentType": 5126,
      "count": 8,
      "type": "VEC3"
    },
    {
      "bufferView": 1,
      "byteOffset": 63392,
      "componentType": 5126,
      "count": 8,
      "type": "VEC2"
    },
    {
      "bufferView": 0,
      "byteOffset": 66264,
      "componentType": 5125,
      "count": 12,
      "type": "SCALAR"
    },
    {
      "bufferView": 2,
      "byteOffset": 190368,
      "componentType": 5126,
      "count": 190,
      "max": [
        1.0,
        1.0,
        1.0
      ],
      "min": [
        -1.0,
        -1.0,
        -1.0
      ],
      "type": "VEC3"
    },
    {
      "bufferView": 2,
      "byteOffset": 192648,
      "componentType": 5126,
      "count": 190,
      "type": "VEC3"
    },
    {
      "bufferView": 1,
      "byteOffset": 63456,
      "componentType": 5126,
      "count": 190,
      "type": "VEC2"
    },
    {
      "bufferView": 0,
      "byteOffset": 66312,
      "componentType": 5125,
      "count": 384,
      "type": "SCALAR"
    },
    {
      "bufferView": 2,
      "byteOffset": 194928,
      "componentType": 5126,
      "count": 190,
      "max": [
        1.0,
        1.0,
        1.0
      ],
      "min": [
        -1.0,
        -1.0,
        -1.0
      ],
      "type": "VEC3"
    },
    {
      "bufferView": 2,
      "byteOffset": 197208,
      "componentType": 5126,
      "count": 190,
      "type": "VEC3"
    },
    {
      "bufferView": 1,
      "byteOffset": 64976,
      "componentType": 5126,
      "count": 190,
      "type": "VEC2"
    },
    {
      "bufferView": 0,
      "byteOffset": 67848,
      "componentType": 5125,
      "count": 384,
      "type": "SCALAR"
    },
    {
      "bufferView": 2,
      "byteOffset": 199488,
      "componentType": 5126,
      "count": 4853,
      "max": [
        0.9999994039535522,
        1.0806751251220703,
        1.0987505912780762
      ],
      "min": [
        -1.2078109979629517,
        -1.140658974647522,
        -1.381352424621582
      ],
      "type": "VEC3"
    },
    {
      "bufferView": 2,
      "byteOffset": 257724,
      "componentType": 5126,
      "count": 4853,
      "type": "VEC3"
    },
    {
      "bufferView": 1,
      "byteOffset": 66496,
      "componentType": 5126,
      "count": 4853,
      "type": "VEC2"
    },
    {
      "bufferView": 0,
      "byteOffset": 69384,
      "componentType": 5125,
      "count": 8841,
      "type": "SCALAR"
    },
    {
      "bufferView": 2,
      "byteOffset": 315960,
      "componentType": 5126,
      "count": 474,
      "max": [
        0.8632892370223999,
        -0.28059327602386475,
        0.8632892370223999
      ],
      "min": [
        -1.2078109979629517,
        -1.140658974647522,
        -0.8632899522781372
      ],
      "type": "VEC3"
    },
    {
      "bufferView": 2,
      "byteOffset": 321648,
      "componentType": 5126,
      "count": 474,
      "type": "VEC3"
    },
    {
      "bufferView": 1,
      "byteOffset": 105320,
      "componentType": 5126,
      "count": 474,
      "type": "VEC2"
    },
    {
      "bufferView": 0,
      "byteOffset": 104748,
      "componentType": 5125,
      "count": 894,
      "type": "SCALAR"
    },
    {
      "bufferView": 2,
      "byteOffset": 327336,
      "componentType": 5126,
      "count": 294,
      "max": [
        0.9999999403953552,
        0.9999999403953552,
        0.9999999403953552
      ],
      "min": [
        -0.9999999403953552,
        -0.9999999403953552,
        -0.9999999403953552
      ],
      "type": "VEC3"
    },
    {
      "bufferView": 2,
      "byteOffset": 330864,
      "componentType": 5126,
      "count": 294,
      "type": "VEC3"
    },
    {
      "bufferView": 1,
      "byteOffset": 109112,
      "componentType": 5126,
      "count": 294,
      "type": "VEC2"
    },
    {
      "bufferView": 0,
      "byteOffset": 108324,
      "componentType": 5125,
      "count": 576,
      "type": "SCALAR"
    },
    {
      "bufferView": 2,
      "byteOffset": 334392,
      "componentType": 5126,
      "count": 336,
      "max": [
        1.0,
        1.0,
        1.4643555879592896
      ],
      "min": [
        -1.0,
        -1.0,
        -1.0
      ],
      "type": "VEC3"
    },
    {
      "bufferView": 2,
      "byteOffset": 338424,
      "componentType": 5126,
      "count": 336,
      "type": "VEC3"
    },
    {
      "bufferView": 1,
      "byteOffset": 111464,
      "componentType": 5126,
      "count": 336,
      "type": "VEC2"
    },
    {
      "bufferView": 0,
      "byteOffset": 110628,
      "componentType": 5125,
      "count": 588,
      "type": "SCALAR"
    },
    {
      "bufferView": 2,
      "byteOffset": 342456,
      "componentType": 5126,
      "count": 304,
      "max": [
        1.0,
        1.0,
        1.1796150207519531
      ],
      "min": [
        -1.0,
        -1.0,
        -1.1850230693817139
      ],
      "type": "VEC3"
    },
    {
      "bufferView": 2,
      "byteOffset": 346104,
      "componentType": 5126,
      "count": 304,
      "type": "VEC3"
    },
    {
      "bufferView": 1,
      "byteOffset": 114152,
      "componentType": 5126,
      "count": 304,
      "type": "VEC2"
    },
    {
      "bufferView": 0,
      "byteOffset": 112980,
      "componentType": 5125,
      "count": 1332,
      "type": "SCALAR"
    },
    {
      "bufferView": 2,
      "byteOffset": 349752,
      "componentType": 5126,
      "count": 336,
      "max": [
        1.0737184286117554,
        1.0,
        1.4594351053237915
      ],
      "min": [
        -1.0,
        -1.0,
        -1.0
      ],
      "type": "VEC3"
    },
    {
      "bufferView": 2,
      "byteOffset": 353784,
      "componentType": 5126,
      "count": 336,
      "type": "VEC3"
    },
    {
      "bufferView": 1,
      "byteOffset": 116584,
      "componentType": 5126,
      "count": 336,
      "type": "VEC2"
    },
    {
      "bufferView": 0,
      "byteOffset": 118308,
      "componentType": 5125,
      "count": 588,
      "type": "SCALAR"
    },
    {
      "bufferView": 2,
      "byteOffset": 357816,
      "componentType": 5126,
      "count": 192,
      "max": [
        1.0,
        1.0,
        1.0
      ],
      "min": [
        -1.0,
        -1.0,
        -1.0
      ],
      "type": "VEC3"
    },
    {
      "bufferView": 2,
      "byteOffset": 360120,
      "componentType": 5126,
      "count": 192,
      "type": "VEC3"
    },
    {
      "bufferView": 1,
      "byteOffset": 119272,
      "componentType": 5126,
      "count": 192,
      "type": "VEC2"
    },
    {
      "bufferView": 0,
      "byteOffset": 120660,
      "componentType": 5125,
      "count": 372,
      "type": "SCALAR"
    },
    {
      "bufferView": 2,
      "byteOffset": 362424,
      "componentType": 5126,
      "count": 192,
      "max": [
        1.0,
        1.0,
        1.0
      ],
      "min": [
        -1.0,
        -1.0,
        -1.0
      ],
      "type": "VEC3"
    },
    {
      "bufferView": 2,
      "byteOffset": 364728,
      "componentType": 5126,
      "count": 192,
      "type": "VEC3"
    },
    {
      "bufferView": 1,
      "byteOffset": 120808,
      "componentType": 5126,
      "count": 192,
      "type": "VEC2"
    },
    {
      "bufferView": 0,
      "byteOffset": 122148,
      "componentType": 5125,
      "count": 372,
      "type": "SCALAR"
    },
    {
      "bufferView": 2,
      "byteOffset": 367032,
      "componentType": 5126,
      "count": 192,
      "max": [
        1.0,
        1.0,
        1.0
      ],
      "min": [
        -1.0,
        -1.0,
        -1.0
      ],
      "type": "VEC3"
    },
    {
      "bufferView": 2,
      "byteOffset": 369336,
      "componentType": 5126,
      "count": 192,
      "type": "VEC3"
    },
    {
      "bufferView": 1,
      "byteOffset": 122344,
      "componentType": 5126,
      "count": 192,
      "type": "VEC2"
    },
    {
      "bufferView": 0,
      "byteOffset": 123636,
      "componentType": 5125,
      "count": 372,
      "type": "SCALAR"
    },
    {
      "bufferView": 2,
      "byteOffset": 371640,
      "componentType": 5126,
      "count": 192,
      "max": [
        1.0,
        1.0,
        1.0
      ],
      "min": [
        -1.0,
        -1.0,
        -1.0
      ],
      "type": "VEC3"
    },
    {
      "bufferView": 2,
      "byteOffset": 373944,
      "componentType": 5126,
      "count": 192,
      "type": "VEC3"
    },
    {
      "bufferView": 1,
      "byteOffset": 123880,
      "componentType": 5126,
      "count": 192,
      "type": "VEC2"
    },
    {
      "bufferView": 0,
      "byteOffset": 125124,
      "componentType": 5125,
      "count": 372,
      "type": "SCALAR"
    },
    {
      "bufferView": 2,
      "byteOffset": 376248,
      "componentType": 5126,
      "count": 192,
      "max": [
        1.0,
        1.0,
        1.0
      ],
      "min": [
        -1.0,
        -1.0,
        -1.0
      ],
      "type": "VEC3"
    },
    {
      "bufferView": 2,
      "byteOffset": 378552,
      "componentType": 5126,
      "count": 192,
      "type": "VEC3"
    },
    {
      "bufferView": 1,
      "byteOffset": 125416,
      "componentType": 5126,
      "count": 192,
      "type": "VEC2"
    },
    {
      "bufferView": 0,
      "byteOffset": 126612,
      "componentType": 5125,
      "count": 372,
      "type": "SCALAR"
    },
    {
      "bufferView": 2,
      "byteOffset": 380856,
      "componentType": 5126,
      "count": 192,
      "max": [
        1.0,
        1.0,
        1.0
      ],
      "min": [
        -1.0,
        -1.0,
        -1.0
      ],
      "type": "VEC3"
    },
    {
      "bufferView": 2,
      "byteOffset": 383160,
      "componentType": 5126,
      "count": 192,
      "type": "VEC3"
    },
    {
      "bufferView": 1,
      "byteOffset": 126952,
      "componentType": 5126,
      "count": 192,
      "type": "VEC2"
    },
    {
      "bufferView": 0,
      "byteOffset": 128100,
      "componentType": 5125,
      "count": 372,
      "type": "SCALAR"
    },
    {
      "bufferView": 2,
      "byteOffset": 385464,
      "componentType": 5126,
      "count": 192,
      "max": [
        1.0,
        1.0,
        1.0
      ],
      "min": [
        -1.0,
        -1.0,
        -1.0
      ],
      "type": "VEC3"
    },
    {
      "bufferView": 2,
      "byteOffset": 387768,
      "componentType": 5126,
      "count": 192,
      "type": "VEC3"
    },
    {
      "bufferView": 1,
      "byteOffset": 128488,
      "componentType": 5126,
      "count": 192,
      "type": "VEC2"
    },
    {
      "bufferView": 0,
      "byteOffset": 129588,
      "componentType": 5125,
      "count": 372,
      "type": "SCALAR"
    },
    {
      "bufferView": 2,
      "byteOffset": 390072,
      "componentType": 5126,
      "count": 162,
      "max": [
        1.0,
        1.0,
        0.07656443119049072
      ],
      "min": [
        -1.0,
        -1.0,
        -1.0
      ],
      "type": "VEC3"
    },
    {
      "bufferView": 2,
      "byteOffset": 392016,
      "componentType": 5126,
      "count": 162,
      "type": "VEC3"
    },
    {
      "bufferView": 1,
      "byteOffset": 130024,
      "componentType": 5126,
      "count": 162,
      "type": "VEC2"
    },
    {
      "bufferView": 0,
      "byteOffset": 131076,
      "componentType": 5125,
      "count": 474,
      "type": "SCALAR"
    },
    {
      "bufferView": 2,
      "byteOffset": 393960,
      "componentType": 5126,
      "count": 188,
      "max": [
        0.8571153879165649,
        0.8571153879165649,
        0.36534494161605835
      ],
      "min": [
        -0.8571153879165649,
        -0.8571153879165649,
        -2.0015788078308105
      ],
      "type": "VEC3"
    },
    {
      "bufferView": 2,
      "byteOffset": 396216,
      "componentType": 5126,
      "count": 188,
      "type": "VEC3"
    },
    {
      "bufferView": 1,
      "byteOffset": 131320,
      "componentType": 5126,
      "count": 188,
      "type": "VEC2"
    },
    {
      "bufferView": 0,
      "byteOffset": 132972,
      "componentType": 5125,
      "count": 858,
      "type": "SCALAR"
    },
    {
      "bufferView": 2,
      "byteOffset": 398472,
      "componentType": 5126,
      "count": 1063,
      "max": [
        0.2523292601108551,
        0.2523292601108551,
        0.6149433851242065
      ],
      "min": [
        -0.2523292601108551,
        -0.2523292601108551,
        -0.6149433851242065
      ],
      "type": "VEC3"
    },
    {
      "bufferView": 2,
      "byteOffset": 411228,
      "componentType": 5126,
      "count": 1063,
      "type": "VEC3"
    },
    {
      "bufferView": 1,
      "byteOffset": 132824,
      "componentType": 5126,
      "count": 1063,
      "type": "VEC2"
    },
    {
      "bufferView": 0,
      "byteOffset": 136404,
      "componentType": 5125,
      "count": 1728,
      "type": "SCALAR"
    },
    {
      "bufferView": 2,
      "byteOffset": 423984,
      "componentType": 5126,
      "count": 52,
      "max": [
        0.08083011955022812,
        0.08083011955022812,
        -0.6149433851242065
      ],
      "min": [
        -0.08083011955022812,
        -0.08083011955022812,
        -0.6329740285873413
      ],
      "type": "VEC3"
    },
    {
      "bufferView": 2,
      "byteOffset": 424608,
      "componentType": 5126,
      "count": 52,
      "type": "VEC3"
    },
    {
      "bufferView": 1,
      "byteOffset": 141328,
      "componentType": 5126,
      "count": 52,
      "type": "VEC2"
    },
    {
      "bufferView": 0,
      "byteOffset": 143316,
      "componentType": 5125,
      "count": 78,
      "type": "SCALAR"
    },
    {
      "bufferView": 2,
      "byteOffset": 425232,
      "componentType": 5126,
      "count": 290,
      "max": [
        1.0,
        1.0,
        1.0
      ],
      "min": [
        -1.0,
        -1.0,
        -1.0
      ],
      "type": "VEC3"
    },
    {
      "bufferView": 2,
      "byteOffset": 428712,
      "componentType": 5126,
      "count": 290,
      "type": "VEC3"
    },
    {
      "bufferView": 1,
      "byteOffset": 141744,
      "componentType": 5126,
      "count": 290,
      "type": "VEC2"
    },
    {
      "bufferView": 0,
      "byteOffset": 143628,
      "componentType": 5125,
      "count": 948,
      "type": "SCALAR"
    },
    {
      "bufferView": 2,
      "byteOffset": 432192,
      "componentType": 5126,
      "count": 290,
      "max": [
        1.0,
        1.0,
        1.0
      ],
      "min": [
        -1.0,
        -1.0,
        -1.0
      ],
      "type": "VEC3"
    },
    {
      "bufferView": 2,
      "byteOffset": 435672,
      "componentType": 5126,
      "count": 290,
      "type": "VEC3"
    },
    {
      "bufferView": 1,
      "byteOffset": 144064,
      "componentType": 5126,
      "count": 290,
      "type": "VEC2"
    },
    {
      "bufferView": 0,
      "byteOffset": 147420,
      "componentType": 5125,
      "count": 948,
      "type": "SCALAR"
    },
    {
      "bufferView": 2,
      "byteOffset": 439152,
      "componentType": 5126,
      "count": 290,
      "max": [
        1.0,
        1.0,
        1.0
      ],
      "min": [
        -1.0,
        -1.0,
        -1.0
      ],
      "type": "VEC3"
    },
    {
      "bufferView": 2,
      "byteOffset": 442632,
      "componentType": 5126,
      "count": 290,
      "type": "VEC3"
    },
    {
      "bufferView": 1,
      "byteOffset": 146384,
      "componentType": 5126,
      "count": 290,
      "type": "VEC2"
    },
    {
      "bufferView": 0,
      "byteOffset": 151212,
      "componentType": 5125,
      "count": 948,
      "type": "SCALAR"
    },
    {
      "bufferView": 2,
      "byteOffset": 446112,
      "componentType": 5126,
      "count": 290,
      "max": [
        1.0,
        1.0,
        1.0
      ],
      "min": [
        -1.0,
        -1.0,
        -1.0
      ],
      "type": "VEC3"
    },
    {
      "bufferView": 2,
      "byteOffset": 449592,
      "componentType": 5126,
      "count": 290,
      "type": "VEC3"
    },
    {
      "bufferView": 1,
      "byteOffset": 148704,
      "componentType": 5126,
      "count": 290,
      "type": "VEC2"
    },
    {
      "bufferView": 0,
      "byteOffset": 155004,
      "componentType": 5125,
      "count": 948,
      "type": "SCALAR"
    },
    {
      "bufferView": 2,
      "byteOffset": 453072,
      "componentType": 5126,
      "count": 250,
      "max": [
        1.0,
        1.0,
        1.4440038204193115
      ],
      "min": [
        -1.0,
        -1.0,
        -1.0
      ],
      "type": "VEC3"
    },
    {
      "bufferView": 2,
      "byteOffset": 456072,
      "componentType": 5126,
      "count": 250,
      "type": "VEC3"
    },
    {
      "bufferView": 1,
      "byteOffset": 151024,
      "componentType": 5126,
      "count": 250,
      "type": "VEC2"
    },
    {
      "bufferView": 0,
      "byteOffset": 158796,
      "componentType": 5125,
      "count": 948,
      "type": "SCALAR"
    },
    {
      "bufferView": 2,
      "byteOffset": 459072,
      "componentType": 5126,
      "count": 250,
      "max": [
        1.0,
        1.0,
        1.4440038204193115
      ],
      "min": [
        -1.0,
        -1.0,
        -1.0
      ],
      "type": "VEC3"
    },
    {
      "bufferView": 2,
      "byteOffset": 462072,
      "componentType": 5126,
      "count": 250,
      "type": "VEC3"
    },
    {
      "bufferView": 1,
      "byteOffset": 153024,
      "componentType": 5126,
      "count": 250,
      "type": "VEC2"
    },
    {
      "bufferView": 0,
      "byteOffset": 162588,
      "componentType": 5125,
      "count": 948,
      "type": "SCALAR"
    },
    {
      "bufferView": 2,
      "byteOffset": 465072,
      "componentType": 5126,
      "count": 250,
      "max": [
        1.0,
        1.0,
        1.4440038204193115
      ],
      "min": [
        -1.0,
        -1.0,
        -1.0
      ],
      "type": "VEC3"
    },
    {
      "bufferView": 2,
      "byteOffset": 468072,
      "componentType": 5126,
      "count": 250,
      "type": "VEC3"
    },
    {
      "bufferView": 1,
      "byteOffset": 155024,
      "componentType": 5126,
      "count": 250,
      "type": "VEC2"
    },
    {
      "bufferView": 0,
      "byteOffset": 166380,
      "componentType": 5125,
      "count": 948,
      "type": "SCALAR"
    },
    {
      "bufferView": 2,
      "byteOffset": 471072,
      "componentType": 5126,
      "count": 176,
      "max": [
        1.0,
        1.0,
        1.0
      ],
      "min": [
        -1.0,
        -1.0,
        -1.0
      ],
      "type": "VEC3"
    },
    {
      "bufferView": 2,
      "byteOffset": 473184,
      "componentType": 5126,
      "count": 176,
      "type": "VEC3"
    },
    {
      "bufferView": 1,
      "byteOffset": 157024,
      "componentType": 5126,
      "count": 176,
      "type": "VEC2"
    },
    {
      "bufferView": 0,
      "byteOffset": 170172,
      "componentType": 5125,
      "count": 264,
      "type": "SCALAR"
    },
    {
      "bufferView": 2,
      "byteOffset": 475296,
      "componentType": 5126,
      "count": 24,
      "max": [
        1.0,
        1.0,
        1.0
      ],
      "min": [
        -1.0,
        -1.0,
        -1.0
      ],
      "type": "VEC3"
    },
    {
      "bufferView": 2,
      "byteOffset": 475584,
      "componentType": 5126,
      "count": 24,
      "type": "VEC3"
    },
    {
      "bufferView": 1,
      "byteOffset": 158432,
      "componentType": 5126,
      "count": 24,
      "type": "VEC2"
    },
    {
      "bufferView": 0,
      "byteOffset": 171228,
      "componentType": 5125,
      "count": 36,
      "type": "SCALAR"
    },
    {
      "bufferView": 2,
      "byteOffset": 475872,
      "componentType": 5126,
      "count": 24,
      "max": [
        1.0,
        1.0,
        1.0
      ],
      "min": [
        -1.0,
        -1.0,
        -1.0
      ],
      "type": "VEC3"
    },
    {
      "bufferView": 2,
      "byteOffset": 476160,
      "componentType": 5126,
      "count": 24,
      "type": "VEC3"
    },
    {
      "bufferView": 1,
      "byteOffset": 158624,
      "componentType": 5126,
      "count": 24,
      "type": "VEC2"
    },
    {
      "bufferView": 0,
      "byteOffset": 171372,
      "componentType": 5125,
      "count": 36,
      "type": "SCALAR"
    },
    {
      "bufferView": 2,
      "byteOffset": 476448,
      "componentType": 5126,
      "count": 24,
      "max": [
        1.0,
        1.0,
        1.0
      ],
      "min": [
        -1.0,
        -1.0,
        -1.0
      ],
      "type": "VEC3"
    },
    {
      "bufferView": 2,
      "byteOffset": 476736,
      "componentType": 5126,
      "count": 24,
      "type": "VEC3"
    },
    {
      "bufferView": 1,
      "byteOffset": 158816,
      "componentType": 5126,
      "count": 24,
      "type": "VEC2"
    },
    {
      "bufferView": 0,
      "byteOffset": 171516,
      "componentType": 5125,
      "count": 36,
      "type": "SCALAR"
    },
    {
      "bufferView": 2,
      "byteOffset": 477024,
      "componentType": 5126,
      "count": 944,
      "max": [
        1.0,
        1.268581509590149,
        1.0
      ],
      "min": [
        -1.1400480270385742,
        -1.0,
        -1.0
      ],
      "type": "VEC3"
    },
    {
      "bufferView": 2,
      "byteOffset": 488352,
      "componentType": 5126,
      "count": 944,
      "type": "VEC3"
    },
    {
      "bufferView": 1,
      "byteOffset": 159008,
      "componentType": 5126,
      "count": 944,
      "type": "VEC2"
    },
    {
      "bufferView": 0,
      "byteOffset": 171660,
      "componentType": 5125,
      "count": 1632,
      "type": "SCALAR"
    },
    {
      "bufferView": 2,
      "byteOffset": 499680,
      "componentType": 5126,
      "count": 471,
      "max": [
        0.7394006848335266,
        1.453534722328186,
        0.6913379430770874
      ],
      "min": [
        -1.1400480270385742,
        -0.8174070119857788,
        -0.9670482873916626
      ],
      "type": "VEC3"
    },
    {
      "bufferView": 2,
      "byteOffset": 505332,
      "componentType": 5126,
      "count": 471,
      "type": "VEC3"
    },
    {
      "bufferView": 1,
      "byteOffset": 166560,
      "componentType": 5126,
      "count": 471,
      "type": "VEC2"
    },
    {
      "bufferView": 0,
      "byteOffset": 178188,
      "componentType": 5125,
      "count": 750,
      "type": "SCALAR"
    },
    {
      "bufferView": 2,
      "byteOffset": 510984,
      "componentType": 5126,
      "count": 120,
      "max": [
        0.3927859365940094,
        0.13218025863170624,
        -0.28429821133613586
      ],
      "min": [
        -1.056246042251587,
        -0.8691155314445496,
        -1.0081980228424072
      ],
      "type": "VEC3"
    },
    {
      "bufferView": 2,
      "byteOffset": 512424,
      "componentType": 5126,
      "count": 120,
      "type": "VEC3"
    },
    {
      "bufferView": 1,
      "byteOffset": 170328,
      "componentType": 5126,
      "count": 120,
      "type": "VEC2"
    },
    {
      "bufferView": 0,
      "byteOffset": 181188,
      "componentType": 5125,
      "count": 198,
      "type": "SCALAR"
    },
    {
      "bufferView": 2,
      "byteOffset": 513864,
      "componentType": 5126,
      "count": 24,
      "max": [
        -0.9127886891365051,
        1.0305148363113403,
        -0.17504118382930756
      ],
      "min": [
        -1.1270763874053955,
        -0.8024530410766602,
        -0.5024403929710388
      ],
      "type": "VEC3"
    },
    {
      "bufferView": 2,
      "byteOffset": 514152,
      "componentType": 5126,
      "count": 24,
      "type": "VEC3"
    },
    {
      "bufferView": 1,
      "byteOffset": 171288,
      "componentType": 5126,
      "count": 24,
      "type": "VEC2"
    },
    {
      "bufferView": 0,
      "byteOffset": 181980,
      "componentType": 5125,
      "count": 36,
      "type": "SCALAR"
    },
    {
      "bufferView": 2,
      "byteOffset": 514440,
      "componentType": 5126,
      "count": 30,
      "max": [
        0.4048968553543091,
        1.5127936601638794,
        -0.11371267586946487
      ],
      "min": [
        -0.39371436834335327,
        1.453534722328186,
        -0.3375413715839386
      ],
      "type": "VEC3"
    },
    {
      "bufferView": 2,
      "byteOffset": 514800,
      "componentType": 5126,
      "count": 30,
      "type": "VEC3"
    },
    {
      "bufferView": 1,
      "byteOffset": 171480,
      "componentType": 5126,
      "count": 30,
      "type": "VEC2"
    },
    {
      "bufferView": 0,
      "byteOffset": 182124,
      "componentType": 5125,
      "count": 48,
      "type": "SCALAR"
    },
    {
      "bufferView": 2,
      "byteOffset": 515160,
      "componentType": 5126,
      "count": 190,
      "max": [
        1.0,
        1.0,
        1.0
      ],
      "min": [
        -1.0,
        -1.0,
        -1.0
      ],
      "type": "VEC3"
    },
    {
      "bufferView": 2,
      "byteOffset": 517440,
      "componentType": 5126,
      "count": 190,
      "type": "VEC3"
    },
    {
      "bufferView": 1,
      "byteOffset": 171720,
      "componentType": 5126,
      "count": 190,
      "type": "VEC2"
    },
    {
      "bufferView": 0,
      "byteOffset": 182316,
      "componentType": 5125,
      "count": 384,
      "type": "SCALAR"
    }
  ],
  "asset": {
    "generator": "fab-model-conversion",
    "version": "2.0"
  },
  "bufferViews": [
    {
      "buffer": 0,
      "byteLength": 183852,
      "target": 34963
    },
    {
      "buffer": 0,
      "byteLength": 173240,
      "byteOffset": 183852,
      "byteStride": 8,
      "target": 34962
    },
    {
      "buffer": 0,
      "byteLength": 519720,
      "byteOffset": 357092,
      "byteStride": 12,
      "target": 34962
    }
  ],
  "buffers": [
    {
      "byteLength": 876812,
      "uri": "scene.bin"
    }
  ],
  "extensionsUsed": [
    "KHR_materials_emissive_strength",
    "KHR_materials_specular"
  ],
  "materials": [
    {
      "doubleSided": true,
      "name": "Material.050",
      "pbrMetallicRoughness": {
        "baseColorFactor": [
          0.0,
          0.0,
          0.0,
          1.0
        ],
        "metallicFactor": 0.0
      }
    },
    {
      "doubleSided": true,
      "name": "Material.049",
      "pbrMetallicRoughness": {
        "baseColorFactor": [
          0.0,
          0.0,
          0.0,
          1.0
        ],
        "metallicFactor": 0.0
      }
    },
    {
      "doubleSided": true,
      "name": "Material.015",
      "pbrMetallicRoughness": {
        "baseColorFactor": [
          0.0147843,
          0.0147843,
          0.0147843,
          1.0
        ],
        "metallicFactor": 0.0,
        "roughnessFactor": 0.9956781632250576
      }
    },
    {
      "doubleSided": true,
      "name": "Material.014",
      "pbrMetallicRoughness": {
        "baseColorFactor": [
          0.8,
          0.8,
          0.8,
          1.0
        ],
        "metallicFactor": 0.0,
        "roughnessFactor": 0.8211145618000169
      }
    },
    {
      "doubleSided": true,
      "name": "Material.024",
      "pbrMetallicRoughness": {
        "baseColorFactor": [
          0.8,
          0.8,
          0.8,
          1.0
        ],
        "metallicFactor": 0.0,
        "roughnessFactor": 0.8211145618000169
      }
    },
    {
      "doubleSided": true,
      "name": "Material.023",
      "pbrMetallicRoughness": {
        "baseColorFactor": [
          0.8,
          0.8,
          0.8,
          1.0
        ],
        "metallicFactor": 0.0,
        "roughnessFactor": 0.8211145618000169
      }
    },
    {
      "doubleSided": true,
      "name": "Material.013",
      "pbrMetallicRoughness": {
        "baseColorFactor": [
          0.800474,
          0.0342169,
          0.014025900000000001,
          1.0
        ],
        "metallicFactor": 0.0,
        "roughnessFactor": 0.951710233767959
      }
    },
    {
      "doubleSided": true,
      "name": "Material.057",
      "pbrMetallicRoughness": {
        "baseColorFactor": [
          0.0,
          0.0,
          0.0,
          1.0
        ],
        "metallicFactor": 0.0
      }
    },
    {
      "doubleSided": true,
      "name": "Material.056",
      "pbrMetallicRoughness": {
        "baseColorFactor": [
          0.0,
          0.0,
          0.0,
          1.0
        ],
        "metallicFactor": 0.0
      }
    },
    {
      "doubleSided": true,
      "name": "Material.055",
      "pbrMetallicRoughness": {
        "baseColorFactor": [
          0.0,
          0.0,
          0.0,
          1.0
        ],
        "metallicFactor": 0.0
      }
    },
    {
      "doubleSided": true,
      "name": "Material.054",
      "pbrMetallicRoughness": {
        "baseColorFactor": [
          0.0,
          0.0,
          0.0,
          1.0
        ],
        "metallicFactor": 0.0
      }
    },
    {
      "doubleSided": true,
      "name": "Material.053",
      "pbrMetallicRoughness": {
        "baseColorFactor": [
          0.0,
          0.0,
          0.0,
          1.0
        ],
        "metallicFactor": 0.0
      }
    },
    {
      "doubleSided": true,
      "name": "Material.052",
      "pbrMetallicRoughness": {
        "baseColorFactor": [
          0.0,
          0.0,
          0.0,
          1.0
        ],
        "metallicFactor": 0.0
      }
    },
    {
      "doubleSided": true,
      "name": "Material.051",
      "pbrMetallicRoughness": {
        "baseColorFactor": [
          0.0,
          0.0,
          0.0,
          1.0
        ],
        "metallicFactor": 0.0
      }
    },
    {
      "doubleSided": true,
      "name": "Material.025",
      "pbrMetallicRoughness": {
        "baseColorFactor": [
          0.0,
          0.0,
          0.0,
          1.0
        ],
        "metallicFactor": 0.0
      }
    },
    {
      "doubleSided": true,
      "name": "Material.026",
      "pbrMetallicRoughness": {
        "baseColorFactor": [
          0.334694,
          0.334694,
          0.334694,
          1.0
        ],
        "metallicFactor": 0.0,
        "roughnessFactor": 0.9251601464338686
      }
    },
    {
      "doubleSided": true,
      "name": "Material.059",
      "pbrMetallicRoughness": {
        "baseColorFactor": [
          0.0,
          0.0,
          0.0,
          1.0
        ],
        "metallicFactor": 0.0
      }
    },
    {
      "doubleSided": true,
      "name": "metalBlack.038",
      "pbrMetallicRoughness": {
        "baseColorFactor": [
          0.0184446,
          0.0184446,
          0.0184446,
          1.0
        ],
        "metallicFactor": 0.0,
        "roughnessFactor": 0.9941673053469259
      }
    },
    {
      "doubleSided": true,
      "name": "Material.012",
      "pbrMetallicRoughness": {
        "baseColorFactor": [
          0.0839744,
          0.0839744,
          0.0839744,
          1.0
        ],
        "metallicFactor": 0.0
      }
    },
    {
      "doubleSided": true,
      "name": "metalBlack.036",
      "pbrMetallicRoughness": {
        "baseColorFactor": [
          0.132879,
          0.132879,
          0.132879,
          1.0
        ],
        "metallicFactor": 0.0,
        "roughnessFactor": 0.9579799706794486
      }
    },
    {
      "doubleSided": true,
      "name": "metalBlack.037",
      "pbrMetallicRoughness": {
        "baseColorFactor": [
          0.399441,
          0.0162304,
          0.01214,
          1.0
        ],
        "metallicFactor": 0.0,
        "roughnessFactor": 0.9770621436531359
      }
    },
    {
      "doubleSided": true,
      "name": "metalBlack.035",
      "pbrMetallicRoughness": {
        "baseColorFactor": [
          0.132879,
          0.132879,
          0.132879,
          1.0
        ],
        "metallicFactor": 0.0,
        "roughnessFactor": 0.9579799706794486
      }
    },
    {
      "doubleSided": true,
      "emissiveFactor": [
        0.137075,
        1.0,
        0.0
      ],
      "extensions": {
        "KHR_materials_emissive_strength": {
          "emissiveStrength": 10
        }
      },
      "name": "metalBlack.034",
      "pbrMetallicRoughness": {
        "baseColorFactor": [
          1.0,
          0.0,
          0.00212804,
          1.0
        ],
        "metallicFactor": 0.0,
        "roughnessFactor": 0.9327213902916192
      }
    },
    {
      "doubleSided": true,
      "emissiveFactor": [
        0.137075,
        1.0,
        0.0
      ],
      "extensions": {
        "KHR_materials_emissive_strength": {
          "emissiveStrength": 10
        }
      },
      "name": "metalBlack.029",
      "pbrMetallicRoughness": {
        "baseColorFactor": [
          1.0,
          0.0,
          0.00212804,
          1.0
        ],
        "metallicFactor": 0.0,
        "roughnessFactor": 0.9327213902916192
      }
    },
    {
      "doubleSided": true,
      "emissiveFactor": [
        1.0,
        0.00139404,
        0.0
      ],
      "extensions": {
        "KHR_materials_emissive_strength": {
          "emissiveStrength": 10
        }
      },
      "name": "metalBlack.028",
      "pbrMetallicRoughness": {
        "baseColorFactor": [
          1.0,
          0.0,
          0.00212804,
          1.0
        ],
        "metallicFactor": 0.0,
        "roughnessFactor": 0.9327213902916192
      }
    },
    {
      "doubleSided": true,
      "emissiveFactor": [
        1.0,
        0.0151138,
        0.0332714
      ],
      "extensions": {
        "KHR_materials_emissive_strength": {
          "emissiveStrength": 10
        }
      },
      "name": "metalBlack.027",
      "pbrMetallicRoughness": {
        "baseColorFactor": [
          1.0,
          0.0,
          0.00212804,
          1.0
        ],
        "metallicFactor": 0.0,
        "roughnessFactor": 0.9327213902916192
      }
    },
    {
      "doubleSided": true,
      "name": "metalBlack.026",
      "pbrMetallicRoughness": {
        "baseColorFactor": [
          0.0260174,
          0.0260174,
          0.0260174,
          1.0
        ],
        "metallicFactor": 0.0,
        "roughnessFactor": 0.9917725757204335
      }
    },
    {
      "doubleSided": true,
      "name": "metalBlack.025",
      "pbrMetallicRoughness": {
        "baseColorFactor": [
          0.0260174,
          0.0260174,
          0.0260174,
          1.0
        ],
        "metallicFactor": 0.0,
        "roughnessFactor": 0.9917725757204335
      }
    },
    {
      "doubleSided": true,
      "name": "metalBlack.021",
      "pbrMetallicRoughness": {
        "baseColorFactor": [
          0.132879,
          0.132879,
          0.132879,
          1.0
        ],
        "metallicFactor": 0.0,
        "roughnessFactor": 0.9579799706794486
      }
    },
    {
      "doubleSided": true,
      "name": "Material.016",
      "pbrMetallicRoughness": {
        "baseColorFactor": [
          0.207068,
          0.207068,
          0.207068,
          1.0
        ],
        "metallicFactor": 0.0,
        "roughnessFactor": 0.9385102863386691
      }
    },
    {
      "doubleSided": true,
      "name": "Material.011",
      "pbrMetallicRoughness": {
        "baseColorFactor": [
          0.0323738,
          0.0323738,
          0.0323738,
          1.0
        ],
        "metallicFactor": 0.0,
        "roughnessFactor": 0.9993097887411313
      }
    },
    {
      "doubleSided": true,
      "name": "Material.001",
      "pbrMetallicRoughness": {
        "baseColorFactor": [
          0.800079,
          0.0537026,
          0.0497273,
          1.0
        ],
        "metallicFactor": 0.0,
        "roughnessFactor": 0.95257407017269
      }
    },
    {
      "doubleSided": true,
      "name": "metalBlack.045",
      "pbrMetallicRoughness": {
        "baseColorFactor": [
          0.132879,
          0.132879,
          0.132879,
          1.0
        ],
        "metallicFactor": 0.0,
        "roughnessFactor": 0.9579799706794486
      }
    },
    {
      "doubleSided": true,
      "name": "metalBlack.044",
      "pbrMetallicRoughness": {
        "baseColorFactor": [
          0.132879,
          0.132879,
          0.132879,
          1.0
        ],
        "metallicFactor": 0.0,
        "roughnessFactor": 0.9579799706794486
      }
    },
    {
      "doubleSided": true,
      "name": "metalBlack.043",
      "pbrMetallicRoughness": {
        "baseColorFactor": [
          0.132879,
          0.132879,
          0.132879,
          1.0
        ],
        "metallicFactor": 0.0,
        "roughnessFactor": 0.9579799706794486
      }
    },
    {
      "doubleSided": true,
      "name": "metalBlack.042",
      "pbrMetallicRoughness": {
        "baseColorFactor": [
          0.132879,
          0.132879,
          0.132879,
          1.0
        ],
        "metallicFactor": 0.0,
        "roughnessFactor": 0.9579799706794486
      }
    },
    {
      "alphaMode": "BLEND",
      "doubleSided": true,
      "emissiveFactor": [
        1.0,
        1.0,
        1.0
      ],
      "extensions": {
        "KHR_materials_emissive_strength": {
          "emissiveStrength": 4.49525179505309
        },
        "KHR_materials_specular": {
          "specularFactor": 0.6872401896843876
        }
      },
      "name": "metalBlack.041",
      "pbrMetallicRoughness": {
        "baseColorFactor": [
          0.0260174,
          0.0260174,
          0.0260174,
          0.5592397995879607
        ],
        "metallicFactor": 0.40685838280649994,
        "roughnessFactor": 0.5104777462178932
      }
    },
    {
      "doubleSided": true,
      "name": "metalBlack.040",
      "pbrMetallicRoughness": {
        "baseColorFactor": [
          0.0260174,
          0.0260174,
          0.0260174,
          1.0
        ],
        "metallicFactor": 0.0,
        "roughnessFactor": 0.9917725757204335
      }
    },
    {
      "doubleSided": true,
      "name": "metalBlack.039",
      "pbrMetallicRoughness": {
        "baseColorFactor": [
          0.0260174,
          0.0260174,
          0.0260174,
          1.0
        ],
        "metallicFactor": 0.0,
        "roughnessFactor": 0.9917725757204335
      }
    },
    {
      "doubleSided": true,
      "name": "Material.022",
      "pbrMetallicRoughness": {
        "baseColorFactor": [
          0.046025,
          0.046025,
          0.046025,
          1.0
        ],
        "metallicFactor": 0.0,
        "roughnessFactor": 0.9854456170690751
      }
    },
    {
      "doubleSided": true,
      "name": "Material.021",
      "pbrMetallicRoughness": {
        "baseColorFactor": [
          0.046025,
          0.046025,
          0.046025,
          1.0
        ],
        "metallicFactor": 0.0,
        "roughnessFactor": 0.9854456170690751
      }
    },
    {
      "doubleSided": true,
      "name": "Material.020",
      "pbrMetallicRoughness": {
        "baseColorFactor": [
          0.466006,
          0.466006,
          0.466006,
          1.0
        ],
        "metallicFactor": 0.0,
        "roughnessFactor": 0.8526359636695574
      }
    },
    {
      "doubleSided": true,
      "name": "Material.017",
      "pbrMetallicRoughness": {
        "baseColorFactor": [
          0.115298,
          0.0240892,
          0.0308956,
          1.0
        ],
        "metallicFactor": 0.0,
        "roughnessFactor": 0.9860949550655022
      }
    },
    {
      "doubleSided": true,
      "name": "Material.010",
      "pbrMetallicRoughness": {
        "baseColorFactor": [
          0.174795,
          0.194442,
          0.214949,
          1.0
        ],
        "metallicFactor": 0.0,
        "roughnessFactor": 0.9393647004451247
      }
    },
    {
      "doubleSided": true,
      "name": "Material.019",
      "pbrMetallicRoughness": {
        "baseColorFactor": [
          0.0154595,
          0.0154595,
          0.0154595,
          1.0
        ],
        "metallicFactor": 0.0,
        "roughnessFactor": 0.9951112768512627
      }
    },
    {
      "doubleSided": true,
      "name": "Material.009",
      "pbrMetallicRoughness": {
        "baseColorFactor": [
          0.8,
          0.8,
          0.8,
          1.0
        ],
        "metallicFactor": 0.0,
        "roughnessFactor": 0.7470177871865296
      }
    },
    {
      "doubleSided": true,
      "emissiveFactor": [
        0.0318188,
        0.11038,
        1.0
      ],
      "extensions": {
        "KHR_materials_emissive_strength": {
          "emissiveStrength": 6.5
        }
      },
      "name": "Material.018",
      "pbrMetallicRoughness": {
        "baseColorFactor": [
          0.108105,
          0.424406,
          0.800079,
          1.0
        ],
        "metallicFactor": 0.0,
        "roughnessFactor": 0.9140714857806607
      }
    },
    {
      "doubleSided": true,
      "name": "Material.058",
      "pbrMetallicRoughness": {
        "baseColorFactor": [
          0.0,
          0.0,
          0.0,
          1.0
        ],
        "metallicFactor": 0.0
      }
    }
  ],
  "meshes": [
    {
      "name": "Torus.003_Material.050_0",
      "primitives": [
        {
          "attributes": {
            "NORMAL": 1,
            "POSITION": 0,
            "TEXCOORD_0": 2
          },
          "indices": 3,
          "material": 0,
          "mode": 4
        }
      ]
    },
    {
      "name": "Torus.002_Material.049_0",
      "primitives": [
        {
          "attributes": {
            "NORMAL": 5,
            "POSITION": 4,
            "TEXCOORD_0": 6
          },
          "indices": 7,
          "material": 1,
          "mode": 4
        }
      ]
    },
    {
      "name": "Cylinder.039_Material.015_0",
      "primitives": [
        {
          "attributes": {
            "NORMAL": 9,
            "POSITION": 8,
            "TEXCOORD_0": 10
          },
          "indices": 11,
          "material": 2,
          "mode": 4
        }
      ]
    },
    {
      "name": "Cylinder.039_Material.014_0",
      "primitives": [
        {
          "attributes": {
            "NORMAL": 13,
            "POSITION": 12,
            "TEXCOORD_0": 14
          },
          "indices": 15,
          "material": 3,
          "mode": 4
        }
      ]
    },
    {
      "name": "Cylinder.039_Material.024_0",
      "primitives": [
        {
          "attributes": {
            "NORMAL": 17,
            "POSITION": 16,
            "TEXCOORD_0": 18
          },
          "indices": 19,
          "material": 4,
          "mode": 4
        }
      ]
    },
    {
      "name": "Cylinder.039_Material.023_0",
      "primitives": [
        {
          "attributes": {
            "NORMAL": 21,
            "POSITION": 20,
            "TEXCOORD_0": 22
          },
          "indices": 23,
          "material": 5,
          "mode": 4
        }
      ]
    },
    {
      "name": "Cylinder.039_Material.013_0",
      "primitives": [
        {
          "attributes": {
            "NORMAL": 25,
            "POSITION": 24,
            "TEXCOORD_0": 26
          },
          "indices": 27,
          "material": 6,
          "mode": 4
        }
      ]
    },
    {
      "name": "Cylinder.017_Material.057_0",
      "primitives": [
        {
          "attributes": {
            "NORMAL": 29,
            "POSITION": 28,
            "TEXCOORD_0": 30
          },
          "indices": 31,
          "material": 7,
          "mode": 4
        }
      ]
    },
    {
      "name": "Cylinder.016_Material.056_0",
      "primitives": [
        {
          "attributes": {
            "NORMAL": 33,
            "POSITION": 32,
            "TEXCOORD_0": 34
          },
          "indices": 35,
          "material": 8,
          "mode": 4
        }
      ]
    },
    {
      "name": "Cylinder.015_Material.050_0",
      "primitives": [
        {
          "attributes": {
            "NORMAL": 37,
            "POSITION": 36,
            "TEXCOORD_0": 38
          },
          "indices": 39,
          "material": 0,
          "mode": 4
        }
      ]
    },
    {
      "name": "Cylinder.014_Material.049_0",
      "primitives": [
        {
          "attributes": {
            "NORMAL": 41,
            "POSITION": 40,
            "TEXCOORD_0": 42
          },
          "indices": 43,
          "material": 1,
          "mode": 4
        }
      ]
    },
    {
      "name": "Cylinder.013_Material.055_0",
      "primitives": [
        {
          "attributes": {
            "NORMAL": 45,
            "POSITION": 44,
            "TEXCOORD_0": 46
          },
          "indices": 47,
          "material": 9,
          "mode": 4
        }
      ]
    },
    {
      "name": "Cylinder.012_Material.054_0",
      "primitives": [
        {
          "attributes": {
            "NORMAL": 49,
            "POSITION": 48,
            "TEXCOORD_0": 50
          },
          "indices": 51,
          "material": 10,
          "mode": 4
        }
      ]
    },
    {
      "name": "Cylinder.011_Material.053_0",
      "primitives": [
        {
          "attributes": {
            "NORMAL": 53,
            "POSITION": 52,
            "TEXCOORD_0": 54
          },
          "indices": 55,
          "material": 11,
          "mode": 4
        }
      ]
    },
    {
      "name": "Cylinder.010_Material.052_0",
      "primitives": [
        {
          "attributes": {
            "NORMAL": 57,
            "POSITION": 56,
            "TEXCOORD_0": 58
          },
          "indices": 59,
          "material": 12,
          "mode": 4
        }
      ]
    },
    {
      "name": "Cylinder.009_Material.051_0",
      "primitives": [
        {
          "attributes": {
            "NORMAL": 61,
            "POSITION": 60,
            "TEXCOORD_0": 62
          },
          "indices": 63,
          "material": 13,
          "mode": 4
        }
      ]
    },
    {
      "name": "Cube.010_Material.025_0",
      "primitives": [
        {
          "attributes": {
            "NORMAL": 65,
            "POSITION": 64,
            "TEXCOORD_0": 66
          },
          "indices": 67,
          "material": 14,
          "mode": 4
        }
      ]
    },
    {
      "name": "Cube.010_Material.026_0",
      "primitives": [
        {
          "attributes": {
            "NORMAL": 69,
            "POSITION": 68,
            "TEXCOORD_0": 70
          },
          "indices": 71,
          "material": 15,
          "mode": 4
        }
      ]
    },
    {
      "name": "Cube.009_Material.057_0",
      "primitives": [
        {
          "attributes": {
            "NORMAL": 73,
            "POSITION": 72,
            "TEXCOORD_0": 74
          },
          "indices": 75,
          "material": 7,
          "mode": 4
        }
      ]
    },
    {
      "name": "Cube.008_Material.059_0",
      "primitives": [
        {
          "attributes": {
            "NORMAL": 77,
            "POSITION": 76,
            "TEXCOORD_0": 78
          },
          "indices": 79,
          "material": 16,
          "mode": 4
        }
      ]
    },
    {
      "name": "Cube.007_metalBlack.038_0",
      "primitives": [
        {
          "attributes": {
            "NORMAL": 81,
            "POSITION": 80,
            "TEXCOORD_0": 82
          },
          "indices": 83,
          "material": 17,
          "mode": 4
        }
      ]
    },
    {
      "name": "Cube.007_Material.012_0",
      "primitives": [
        {
          "attributes": {
            "NORMAL": 85,
            "POSITION": 84,
            "TEXCOORD_0": 86
          },
          "indices": 87,
          "material": 18,
          "mode": 4
        }
      ]
    },
    {
      "name": "Cylinder.038_metalBlack.038_0",
      "primitives": [
        {
          "attributes": {
            "NORMAL": 89,
            "POSITION": 88,
            "TEXCOORD_0": 90
          },
          "indices": 91,
          "material": 17,
          "mode": 4
        }
      ]
    },
    {
      "name": "Cylinder.037_metalBlack.036_0",
      "primitives": [
        {
          "attributes": {
            "NORMAL": 93,
            "POSITION": 92,
            "TEXCOORD_0": 94
          },
          "indices": 95,
          "material": 19,
          "mode": 4
        }
      ]
    },
    {
      "name": "Cylinder.036_metalBlack.037_0",
      "primitives": [
        {
          "attributes": {
            "NORMAL": 97,
            "POSITION": 96,
            "TEXCOORD_0": 98
          },
          "indices": 99,
          "material": 20,
          "mode": 4
        }
      ]
    },
    {
      "name": "Cylinder.035_metalBlack.035_0",
      "primitives": [
        {
          "attributes": {
            "NORMAL": 101,
            "POSITION": 100,
            "TEXCOORD_0": 102
          },
          "indices": 103,
          "material": 21,
          "mode": 4
        }
      ]
    },
    {
      "name": "Cylinder.034_metalBlack.034_0",
      "primitives": [
        {
          "attributes": {
            "NORMAL": 105,
            "POSITION": 104,
            "TEXCOORD_0": 106
          },
          "indices": 107,
          "material": 22,
          "mode": 4
        }
      ]
    },
    {
      "name": "Cylinder.029_metalBlack.029_0",
      "primitives": [
        {
          "attributes": {
            "NORMAL": 109,
            "POSITION": 108,
            "TEXCOORD_0": 110
          },
          "indices": 111,
          "material": 23,
          "mode": 4
        }
      ]
    },
    {
      "name": "Cylinder.028_metalBlack.028_0",
      "primitives": [
        {
          "attributes": {
            "NORMAL": 113,
            "POSITION": 112,
            "TEXCOORD_0": 114
          },
          "indices": 115,
          "material": 24,
          "mode": 4
        }
      ]
    },
    {
      "name": "Cylinder.027_metalBlack.027_0",
      "primitives": [
        {
          "attributes": {
            "NORMAL": 117,
            "POSITION": 116,
            "TEXCOORD_0": 118
          },
          "indices": 119,
          "material": 25,
          "mode": 4
        }
      ]
    },
    {
      "name": "Cylinder.026_metalBlack.026_0",
      "primitives": [
        {
          "attributes": {
            "NORMAL": 121,
            "POSITION": 120,
            "TEXCOORD_0": 122
          },
          "indices": 123,
          "material": 26,
          "mode": 4
        }
      ]
    },
    {
      "name": "Cylinder.025_metalBlack.025_0",
      "primitives": [
        {
          "attributes": {
            "NORMAL": 125,
            "POSITION": 124,
            "TEXCOORD_0": 126
          },
          "indices": 127,
          "material": 27,
          "mode": 4
        }
      ]
    },
    {
      "name": "Cylinder.021_metalBlack.021_0",
      "primitives": [
        {
          "attributes": {
            "NORMAL": 129,
            "POSITION": 128,
            "TEXCOORD_0": 130
          },
          "indices": 131,
          "material": 28,
          "mode": 4
        }
      ]
    },
    {
      "name": "Cylinder.040_metalBlack.038_0",
      "primitives": [
        {
          "attributes": {
            "NORMAL": 133,
            "POSITION": 132,
            "TEXCOORD_0": 134
          },
          "indices": 135,
          "material": 17,
          "mode": 4
        }
      ]
    },
    {
      "name": "Cylinder.040_Material.016_0",
      "primitives": [
        {
          "attributes": {
            "NORMAL": 137,
            "POSITION": 136,
            "TEXCOORD_0": 138
          },
          "indices": 139,
          "material": 29,
          "mode": 4
        }
      ]
    },
    {
      "name": "Cube.004_Material.011_0",
      "primitives": [
        {
          "attributes": {
            "NORMAL": 141,
            "POSITION": 140,
            "TEXCOORD_0": 142
          },
          "indices": 143,
          "material": 30,
          "mode": 4
        }
      ]
    },
    {
      "name": "Cube.004_Material.001_0",
      "primitives": [
        {
          "attributes": {
            "NORMAL": 145,
            "POSITION": 144,
            "TEXCOORD_0": 146
          },
          "indices": 147,
          "material": 31,
          "mode": 4
        }
      ]
    },
    {
      "name": "Cylinder.007_metalBlack.045_0",
      "primitives": [
        {
          "attributes": {
            "NORMAL": 149,
            "POSITION": 148,
            "TEXCOORD_0": 150
          },
          "indices": 151,
          "material": 32,
          "mode": 4
        }
      ]
    },
    {
      "name": "Cylinder.006_metalBlack.044_0",
      "primitives": [
        {
          "attributes": {
            "NORMAL": 153,
            "POSITION": 152,
            "TEXCOORD_0": 154
          },
          "indices": 155,
          "material": 33,
          "mode": 4
        }
      ]
    },
    {
      "name": "Cylinder.005_metalBlack.043_0",
      "primitives": [
        {
          "attributes": {
            "NORMAL": 157,
            "POSITION": 156,
            "TEXCOORD_0": 158
          },
          "indices": 159,
          "material": 34,
          "mode": 4
        }
      ]
    },
    {
      "name": "Cylinder.004_metalBlack.042_0",
      "primitives": [
        {
          "attributes": {
            "NORMAL": 161,
            "POSITION": 160,
            "TEXCOORD_0": 162
          },
          "indices": 163,
          "material": 35,
          "mode": 4
        }
      ]
    },
    {
      "name": "Cylinder.003_metalBlack.041_0",
      "primitives": [
        {
          "attributes": {
            "NORMAL": 165,
            "POSITION": 164,
            "TEXCOORD_0": 166
          },
          "indices": 167,
          "material": 36,
          "mode": 4
        }
      ]
    },
    {
      "name": "Cylinder.002_metalBlack.040_0",
      "primitives": [
        {
          "attributes": {
            "NORMAL": 169,
            "POSITION": 168,
            "TEXCOORD_0": 170
          },
          "indices": 171,
          "material": 37,
          "mode": 4
        }
      ]
    },
    {
      "name": "Cylinder.001_metalBlack.039_0",
      "primitives": [
        {
          "attributes": {
            "NORMAL": 173,
            "POSITION": 172,
            "TEXCOORD_0": 174
          },
          "indices": 175,
          "material": 38,
          "mode": 4
        }
      ]
    },
    {
      "name": "Cube.005_metalBlack.038_0",
      "primitives": [
        {
          "attributes": {
            "NORMAL": 177,
            "POSITION": 176,
            "TEXCOORD_0": 178
          },
          "indices": 179,
          "material": 17,
          "mode": 4
        }
      ]
    },
    {
      "name": "Cube.002_Material.022_0",
      "primitives": [
        {
          "attributes": {
            "NORMAL": 181,
            "POSITION": 180,
            "TEXCOORD_0": 182
          },
          "indices": 183,
          "material": 39,
          "mode": 4
        }
      ]
    },
    {
      "name": "Cube.001_Material.021_0",
      "primitives": [
        {
          "attributes": {
            "NORMAL": 185,
            "POSITION": 184,
            "TEXCOORD_0": 186
          },
          "indices": 187,
          "material": 40,
          "mode": 4
        }
      ]
    },
    {
      "name": "Cube_Material.020_0",
      "primitives": [
        {
          "attributes": {
            "NORMAL": 189,
            "POSITION": 188,
            "TEXCOORD_0": 190
          },
          "indices": 191,
          "material": 41,
          "mode": 4
        }
      ]
    },
    {
      "name": "Cube.006_Material.017_0",
      "primitives": [
        {
          "attributes": {
            "NORMAL": 193,
            "POSITION": 192,
            "TEXCOORD_0": 194
          },
          "indices": 195,
          "material": 42,
          "mode": 4
        }
      ]
    },
    {
      "name": "Cube.006_Material.010_0",
      "primitives": [
        {
          "attributes": {
            "NORMAL": 197,
            "POSITION": 196,
            "TEXCOORD_0": 198
          },
          "indices": 199,
          "material": 43,
          "mode": 4
        }
      ]
    },
    {
      "name": "Cube.006_Material.019_0",
      "primitives": [
        {
          "attributes": {
            "NORMAL": 201,
            "POSITION": 200,
            "TEXCOORD_0": 202
          },
          "indices": 203,
          "material": 44,
          "mode": 4
        }
      ]
    },
    {
      "name": "Cube.006_Material.009_0",
      "primitives": [
        {
          "attributes": {
            "NORMAL": 205,
            "POSITION": 204,
            "TEXCOORD_0": 206
          },
          "indices": 207,
          "material": 45,
          "mode": 4
        }
      ]
    },
    {
      "name": "Cube.006_Material.018_0",
      "primitives": [
        {
          "attributes": {
            "NORMAL": 209,
            "POSITION": 208,
            "TEXCOORD_0": 210
          },
          "indices": 211,
          "material": 46,
          "mode": 4
        }
      ]
    },
    {
      "name": "Cube.003_Material.058_0",
      "primitives": [
        {
          "attributes": {
            "NORMAL": 213,
            "POSITION": 212,
            "TEXCOORD_0": 214
          },
          "indices": 215,
          "material": 47,
          "mode": 4
        }
      ]
    }
  ],
  "nodes": [
    {
      "children": [
        1
      ],
      "matrix": [
        1.0,
        0.0,
        0.0,
        0.0,
        0.0,
        2.220446049250313e-16,
        -1.0,
        0.0,
        0.0,
        1.0,
        2.220446049250313e-16,
        0.0,
        0.0,
        0.0,
        0.0,
        1.0
      ],
      "name": "Sketchfab_model"
    },
    {
      "children": [
        2
      ],
      "matrix": [
        0.009999999776482582,
        0.0,
        0.0,
        0.0,
        0.0,
        0.0,
        0.009999999776482582,
        0.0,
        0.0,
        -0.009999999776482582,
        0.0,
        0.0,
        0.0,
        0.0,
        0.0,
        1.0
      ],
      "name": "5de13d7216b841569b4b22cf06472ba2.fbx"
    },
    {
      "children": [
        3,
        5,
        7,
        13,
        15,
        17,
        19,
        21,
        23,
        25,
        27,
        29,
        31,
        34,
        36,
        38,
        91,
        97
      ],
      "name": "RootNode"
    },
    {
      "children": [
        4
      ],
      "matrix": [
        24.02146975444505,
        0.1111021158995593,
        0.10571659307556183,
        0.0,
        0.10599379456346872,
        -0.05975953906442988,
        -24.02165303619711,
        0.0,
        -0.19624920418286523,
        42.53268907671901,
        -0.10667605132609304,
        0.0,
        18.8057918548584,
        -334.0140686035156,
        7.646578788757324,
        1.0
      ],
      "name": "Torus.003"
    },
    {
      "mesh": 0,
      "name": "Torus.003_Material.050_0"
    },
    {
      "children": [
        6
      ],
      "matrix": [
        24.02146975444505,
        0.1111021158995593,
        0.10571659307556183,
        0.0,
        0.10599379456346872,
        -0.05975953906442988,
        -24.02165303619711,
        0.0,
        -0.19624920418286523,
        42.53268907671901,
        -0.10667605132609304,
        0.0,
        18.993045806884766,
        -374.5925598144531,
        7.748335838317871,
        1.0
      ],
      "name": "Torus.002"
    },
    {
      "mesh": 1,
      "name": "Torus.002_Material.049_0"
    },
    {
      "children": [
        8,
        9,
        10,
        11,
        12
      ],
      "matrix": [
        -2.062595206200434,
        -1.674163279513846,
        39.23978103646214,
        0.0,
        -0.5497412260061675,
        -39.28524474450034,
        -1.7049995190645917,
        0.0,
        43.66845672018729,
        -0.7093853101658626,
        2.2651177021944107,
        0.0,
        217.9382781982422,
        193.7720947265625,
        29.10141372680664,
        1.0
      ],
      "name": "Cylinder.039"
    },
    {
      "mesh": 2,
      "name": "Cylinder.039_Material.015_0"
    },
    {
      "mesh": 3,
      "name": "Cylinder.039_Material.014_0"
    },
    {
      "mesh": 4,
      "name": "Cylinder.039_Material.024_0"
    },
    {
      "mesh": 5,
      "name": "Cylinder.039_Material.023_0"
    },
    {
      "mesh": 6,
      "name": "Cylinder.039_Material.013_0"
    },
    {
      "children": [
        14
      ],
      "matrix": [
        14.288226762089229,
        0.06608473842806241,
        0.06288136528103849,
        0.0,
        0.06304622699538598,
        -0.03554220256172473,
        -14.28833465414127,
        0.0,
        -1.0424438693877924,
        225.92663313063548,
        -0.566591734278142,
        0.0,
        21.33579444885254,
        -133.0212860107422,
        6.640190124511719,
        1.0
      ],
      "name": "Cylinder.017"
    },
    {
      "mesh": 7,
      "name": "Cylinder.017_Material.057_0"
    },
    {
      "children": [
        16
      ],
      "matrix": [
        21.148309771987545,
        0.09781343358754746,
        0.09307207223259227,
        0.0,
        0.09331608757884448,
        -0.05260677346260443,
        -21.148469465319437,
        0.0,
        -0.07054184074616318,
        15.288382473816307,
        -0.03834108011118395,
        0.0,
        20.796348571777344,
        -21.758586883544922,
        6.009763717651367,
        1.0
      ],
      "name": "Cylinder.016"
    },
    {
      "mesh": 8,
      "name": "Cylinder.016_Material.056_0"
    },
    {
      "children": [
        18
      ],
      "matrix": [
        6.896124012083435,
        0.03189538584529109,
        0.03034930409008852,
        0.0,
        0.030428873565793605,
        -0.017154223585587918,
        -6.896176085498208,
        0.0,
        -0.13827652398664722,
        29.968378714207024,
        -0.07515641442458433,
        0.0,
        20.085670471191406,
        -321.1163330078125,
        7.419651985168457,
        1.0
      ],
      "name": "Cylinder.015"
    },
    {
      "mesh": 9,
      "name": "Cylinder.015_Material.050_0"
    },
    {
      "children": [
        20
      ],
      "matrix": [
        6.896124012083435,
        0.03189538584529109,
        0.03034930409008852,
        0.0,
        0.030428873565793605,
        -0.017154223585587918,
        -6.896176085498208,
        0.0,
        -0.13827652398664722,
        29.968378714207024,
        -0.07515641442458433,
        0.0,
        20.272876739501953,
        -361.6947937011719,
        7.521409034729004,
        1.0
      ],
      "name": "Cylinder.014"
    },
    {
      "mesh": 10,
      "name": "Cylinder.014_Material.049_0"
    },
    {
      "children": [
        22
      ],
      "matrix": [
        21.148309771987545,
        0.09781343358754746,
        0.09307207223259227,
        0.0,
        0.09331608757884448,
        -0.05260677346260443,
        -21.148469465319437,
        0.0,
        -0.07054184074616318,
        15.288382473816307,
        -0.03834108011118395,
        0.0,
        22.37677764892578,
        -358.63482666015625,
        7.206028938293457,
        1.0
      ],
      "name": "Cylinder.013"
    },
    {
      "mesh": 11,
      "name": "Cylinder.013_Material.055_0"
    },
    {
      "children": [
        24
      ],
      "matrix": [
        13.4032307408053,
        4.95105353877449,
        0.046824943904456656,
        0.0,
        0.06304621835488554,
        -0.03554244403249806,
        -14.288334653578735,
        0.0,
        -78.28310946827439,
        211.932153564944,
        -0.872602792564219,
        0.0,
        107.66529846191406,
        -559.899169921875,
        8.083027839660645,
        1.0
      ],
      "name": "Cylinder.012"
    },
    {
      "mesh": 12,
      "name": "Cylinder.012_Material.054_0"
    },
    {
      "children": [
        26
      ],
      "matrix": [
        -5.620272027294741,
        6.9982102821284435,
        11.117522799471615,
        0.0,
        12.682812145751564,
        -0.2607535385099553,
        6.575715088974479,
        0.0,
        54.13278562477096,
        196.93296599528952,
        -96.59861698353198,
        0.0,
        -51.641700744628906,
        -558.4784545898438,
        118.00206756591797,
        1.0
      ],
      "name": "Cylinder.011"
    },
    {
      "mesh": 13,
      "name": "Cylinder.011_Material.053_0"
    },
    {
      "children": [
        28
      ],
      "matrix": [
        -12.414945556089302,
        6.551344460160834,
        -2.6665953225245587,
        0.0,
        -5.243697252684864,
        -4.909436805444623,
        12.351632063786816,
        0.0,
        75.06026739301784,
        185.16837327755943,
        105.46507037777972,
        0.0,
        -55.59783172607422,
        -559.009521484375,
        -86.46627044677734,
        1.0
      ],
      "name": "Cylinder.010"
    },
    {
      "mesh": 14,
      "name": "Cylinder.010_Material.052_0"
    },
    {
      "children": [
        30
      ],
      "matrix": [
        21.14830977198534,
        0.09781344343569709,
        0.0930720623845378,
        0.0,
        0.0933160693394946,
        -0.052606768720238666,
        -21.148467558038618,
        0.0,
        -0.3074532124831603,
        66.6336713069539,
        -0.1671077325589314,
        0.0,
        21.88067626953125,
        -251.10829162597656,
        6.93635368347168,
        1.0
      ],
      "name": "Cylinder.009"
    },
    {
      "mesh": 15,
      "name": "Cylinder.009_Material.051_0"
    },
    {
      "children": [
        32,
        33
      ],
      "matrix": [
        46.72888907175655,
        0.22272303784737738,
        2.8357523366183326,
        0.0,
        1.9771046290136611,
        -0.0725703067568587,
        -32.573979970130864,
        0.0,
        -0.04002399131139328,
        8.674301694987623,
        -0.02175442957998884,
        0.0,
        22.01948356628418,
        106.12313842773438,
        6.006878852844238,
        1.0
      ],
      "name": "Cube.010"
    },
    {
      "mesh": 16,
      "name": "Cube.010_Material.025_0"
    },
    {
      "mesh": 17,
      "name": "Cube.010_Material.026_0"
    },
    {
      "children": [
        35
      ],
      "matrix": [
        3.7339314003307114,
        1.9614604523819301,
        0.011596394157279206,
        0.0,
        0.18928237302423995,
        -0.10671718616155076,
        -42.89659778481281,
        0.0,
        -35.80162717886417,
        68.15565306487814,
        -0.32753172028028904,
        0.0,
        77.18868255615234,
        -407.74041748046875,
        8.738130569458008,
        1.0
      ],
      "name": "Cube.009"
    },
    {
      "mesh": 18,
      "name": "Cube.009_Material.057_0"
    },
    {
      "children": [
        37
      ],
      "matrix": [
        -2.248644575979498,
        1.9262935600652789,
        -3.0037802809727054,
        0.0,
        -34.36957504961561,
        -0.09421000247595351,
        25.66881568581543,
        0.0,
        20.919071513917853,
        68.48906302398699,
        28.261216335111786,
        0.0,
        -24.976011276245117,
        -408.3464050292969,
        -44.948368072509766,
        1.0
      ],
      "name": "Cube.008"
    },
    {
      "mesh": 19,
      "name": "Cube.008_Material.059_0"
    },
    {
      "children": [
        39,
        40,
        41,
        43,
        45,
        47,
        49,
        51,
        53,
        55,
        57,
        59,
        61,
        69,
        71,
        73,
        75,
        77,
        79,
        81,
        83,
        85,
        87,
        89
      ],
      "matrix": [
        -3.772999183477125,
        -3.0624619581611445,
        71.77948340088388,
        0.0,
        -99.59794264057936,
        1.6180478833054397,
        -5.166208066708308,
        0.0,
        -1.0057782392653782,
        -71.86909372238519,
        -3.1191526514256447,
        0.0,
        35.30945587158203,
        188.1878662109375,
        18.6772518157959,
        1.0
      ],
      "name": "Cube.007"
    },
    {
      "mesh": 20,
      "name": "Cube.007_metalBlack.038_0"
    },
    {
      "mesh": 21,
      "name": "Cube.007_Material.012_0"
    },
    {
      "children": [
        42
      ],
      "matrix": [
        0.1485050022598777,
        3.05674444512883e-07,
        -6.869877058023059e-08,
        -0.0,
        -6.869853858321025e-08,
        -1.1271055632786323e-07,
        -0.1485050022601495,
        -0.0,
        1.1713717952867774e-06,
        -0.5690843462930337,
        4.3191631153703533e-07,
        -0.0,
        -0.9416050910949707,
        -0.4894474148750305,
        -0.885441780090332,
        1.0
      ],
      "name": "Cylinder.038"
    },
    {
      "mesh": 22,
      "name": "Cylinder.038_metalBlack.038_0"
    },
    {
      "children": [
        44
      ],
      "matrix": [
        -6.331897799894585e-08,
        -1.9966388210949518e-23,
        -0.09428860247133038,
        -0.0,
        -1.7241321048276552e-07,
        0.06800822913624845,
        1.157831169060072e-13,
        -0.0,
        -0.04505536332710984,
        -1.1422352764303259e-07,
        3.0256674565345126e-08,
        -0.0,
        -0.9851577281951904,
        0.8538222312927246,
        -0.4069693982601166,
        1.0
      ],
      "name": "Cylinder.037"
    },
    {
      "mesh": 23,
      "name": "Cylinder.037_metalBlack.036_0"
    },
    {
      "children": [
        46
      ],
      "matrix": [
        0.12588815391035643,
        2.591211806452196e-07,
        -5.896994029544464e-08,
        -0.0,
        -5.8969764571281665e-08,
        -9.554512585667756e-08,
        -0.1258881986140704,
        -0.0,
        2.9918205939768235e-07,
        -0.14535079896415068,
        1.1031647838297327e-07,
        -0.0,
        -0.9854815602302551,
        -0.9442343711853027,
        -0.903387725353241,
        1.0
      ],
      "name": "Cylinder.036"
    },
    {
      "mesh": 24,
      "name": "Cylinder.036_metalBlack.037_0"
    },
    {
      "children": [
        48
      ],
      "matrix": [
        -6.42244574535925e-08,
        -2.0251913260150642e-23,
        -0.09563695639369717,
        -0.0,
        -1.7487877392398442e-07,
        0.06898076832272297,
        1.174388520979597e-13,
        -0.0,
        -0.04569967091067811,
        -1.1585696436726922e-07,
        3.0689355681119834e-08,
        -0.0,
        -0.9851579666137695,
        0.853822648525238,
        -0.10021291673183441,
        1.0
      ],
      "name": "Cylinder.035"
    },
    {
      "mesh": 25,
      "name": "Cylinder.035_metalBlack.035_0"
    },
    {
      "children": [
        50
      ],
      "matrix": [
        -2.3521821811873115e-08,
        -7.417141599039349e-24,
        -0.03502646088599369,
        -0.0,
        -6.40482906867363e-08,
        0.025263788178481933,
        4.301126756730511e-14,
        -0.0,
        -0.01673722639674153,
        -4.2431908230680684e-08,
        1.1239789778989608e-08,
        -0.0,
        -1.2055578231811523,
        0.41362839937210083,
        -0.3657090365886688,
        1.0
      ],
      "name": "Cylinder.034"
    },
    {
      "mesh": 26,
      "name": "Cylinder.034_metalBlack.034_0"
    },
    {
      "children": [
        52
      ],
      "matrix": [
        -2.3521821811873115e-08,
        -7.417141599039349e-24,
        -0.03502646088599369,
        -0.0,
        -6.40482906867363e-08,
        0.025263788178481933,
        4.301126756730511e-14,
        -0.0,
        -0.01673722639674153,
        -4.2431908230680684e-08,
        1.1239789778989608e-08,
        -0.0,
        -1.0000829696655273,
        0.8385443687438965,
        0.5846872329711914,
        1.0
      ],
      "name": "Cylinder.029"
    },
    {
      "mesh": 27,
      "name": "Cylinder.029_metalBlack.029_0"
    },
    {
      "children": [
        54
      ],
      "matrix": [
        -2.3521821811873115e-08,
        -7.417141599039349e-24,
        -0.03502646088599369,
        -0.0,
        -6.40482906867363e-08,
        0.025263788178481933,
        4.301126756730511e-14,
        -0.0,
        -0.01673722639674153,
        -4.2431908230680684e-08,
        1.1239789778989608e-08,
        -0.0,
        -1.000083327293396,
        0.8385446071624756,
        0.7533280253410339,
        1.0
      ],
      "name": "Cylinder.028"
    },
    {
      "mesh": 28,
      "name": "Cylinder.028_metalBlack.028_0"
    },
    {
      "children": [
        56
      ],
      "matrix": [
        -0.001090400887556368,
        0.0008244822656584866,
        -0.03499977452922561,
        -0.0,
        -0.034798233859225085,
        -0.003232391382003471,
        0.001007977228136288,
        -0.0,
        0.0011109366315814543,
        -0.0120591400047488,
        -0.00031868529189494244,
        -0.0,
        0.6540720462799072,
        -1.1427435874938965,
        -0.6641846895217896,
        1.0
      ],
      "name": "Cylinder.027"
    },
    {
      "mesh": 29,
      "name": "Cylinder.027_metalBlack.027_0"
    },
    {
      "children": [
        58
      ],
      "matrix": [
        0.0019078514063178688,
        0.0014425479312896797,
        -0.06124111571394332,
        -0.0,
        -0.06155082732512105,
        0.005717074694567236,
        -0.0017828329370839014,
        -0.0,
        -0.0038177434713515907,
        -0.04144387801303339,
        -0.0010951542433743123,
        -0.0,
        0.6493034958839417,
        -1.1479049921035767,
        0.5094512701034546,
        1.0
      ],
      "name": "Cylinder.026"
    },
    {
      "mesh": 30,
      "name": "Cylinder.026_metalBlack.026_0"
    },
    {
      "children": [
        60
      ],
      "matrix": [
        0.0020302408001225025,
        0.0015350829850290344,
        -0.0651696802308797,
        -0.0,
        -0.06549925984269056,
        0.006083812225110673,
        -0.0018972030036291544,
        -0.0,
        -0.0040626424163641775,
        -0.04410245934532742,
        -0.0011654050942077497,
        -0.0,
        0.6467560529708862,
        -1.1509265899658203,
        0.2710782289505005,
        1.0
      ],
      "name": "Cylinder.025"
    },
    {
      "mesh": 31,
      "name": "Cylinder.025_metalBlack.025_0"
    },
    {
      "children": [
        62,
        63,
        66
      ],
      "matrix": [
        -1.9445967954150886e-07,
        -6.131901644349413e-23,
        -0.289570868015224,
        -0.0,
        -5.295003942139755e-07,
        0.208860933779999,
        3.555829966473591e-13,
        -0.0,
        -0.4625541269763298,
        -1.172658707144173e-06,
        3.106256093680001e-07,
        -0.0,
        1.187216877937317,
        -0.05146262049674988,
        -0.2637411952018738,
        1.0
      ],
      "name": "Cylinder.021"
    },
    {
      "mesh": 32,
      "name": "Cylinder.021_metalBlack.021_0"
    },
    {
      "children": [
        64,
        65
      ],
      "matrix": [
        -5.859210256707534e-07,
        -3.5155368791367358e-06,
        -1.2269724607415888,
        -0.0,
        -1.9589199317329309,
        -0.0631912115456948,
        1.116507056165365e-06,
        -0.0,
        0.02497957181649923,
        -0.7743637116317387,
        2.206788022050691e-06,
        -0.0,
        -0.4578167498111725,
        -6.11994743347168,
        2.540935516357422,
        1.0
      ],
      "name": "Cylinder.040"
    },
    {
      "mesh": 33,
      "name": "Cylinder.040_metalBlack.038_0"
    },
    {
      "mesh": 34,
      "name": "Cylinder.040_Material.016_0"
    },
    {
      "children": [
        67,
        68
      ],
      "matrix": [
        -1.301542155705394e-06,
        -4.772498414713625e-22,
        3.0049982070920036,
        -0.0,
        -3.216710249030353e-06,
        -4.800117969511862,
        -1.3932400973642496e-12,
        -0.0,
        -4.800117492674254,
        3.216709929487055e-06,
        -2.0790545745788334e-06,
        -0.0,
        -0.5575340986251831,
        0.08535027503967285,
        -1.6300673484802246,
        1.0
      ],
      "name": "Cube.004"
    },
    {
      "mesh": 35,
      "name": "Cube.004_Material.011_0"
    },
    {
      "mesh": 36,
      "name": "Cube.004_Material.001_0"
    },
    {
      "children": [
        70
      ],
      "matrix": [
        -3.8604429307500866e-08,
        -1.2173143764710663e-23,
        -0.05748604610561029,
        -0.0,
        -1.0511722297308684e-07,
        0.04146338999258069,
        7.059087689538927e-14,
        -0.0,
        -0.027469443157220785,
        -6.964002658301927e-08,
        1.844694928026875e-08,
        -0.0,
        -1.212700366973877,
        0.4894775152206421,
        0.49357205629348755,
        1.0
      ],
      "name": "Cylinder.007"
    },
    {
      "mesh": 37,
      "name": "Cylinder.007_metalBlack.045_0"
    },
    {
      "children": [
        72
      ],
      "matrix": [
        -3.8604429307500866e-08,
        -1.2173143764710663e-23,
        -0.05748604610561029,
        -0.0,
        -1.0511722297308684e-07,
        0.04146338999258069,
        7.059087689538927e-14,
        -0.0,
        -0.027469443157220785,
        -6.964002658301927e-08,
        1.844694928026875e-08,
        -0.0,
        -1.2127001285552979,
        0.23141324520111084,
        0.49357208609580994,
        1.0
      ],
      "name": "Cylinder.006"
    },
    {
      "mesh": 38,
      "name": "Cylinder.006_metalBlack.044_0"
    },
    {
      "children": [
        74
      ],
      "matrix": [
        -3.8604429307500866e-08,
        -1.2173143764710663e-23,
        -0.05748604610561029,
        -0.0,
        -1.0511722297308684e-07,
        0.04146338999258069,
        7.059087689538927e-14,
        -0.0,
        -0.027469443157220785,
        -6.964002658301927e-08,
        1.844694928026875e-08,
        -0.0,
        -1.212699294090271,
        -0.05043065547943115,
        0.4935726523399353,
        1.0
      ],
      "name": "Cylinder.005"
    },
    {
      "mesh": 39,
      "name": "Cylinder.005_metalBlack.043_0"
    },
    {
      "children": [
        76
      ],
      "matrix": [
        -3.8604429307500866e-08,
        -1.2173143764710663e-23,
        -0.05748604610561029,
        -0.0,
        -1.0511722297308684e-07,
        0.04146338999258069,
        7.059087689538927e-14,
        -0.0,
        -0.027469443157220785,
        -6.964002658301927e-08,
        1.844694928026875e-08,
        -0.0,
        -1.2126985788345337,
        -0.32652369141578674,
        0.4935727119445801,
        1.0
      ],
      "name": "Cylinder.004"
    },
    {
      "mesh": 40,
      "name": "Cylinder.004_metalBlack.042_0"
    },
    {
      "children": [
        78
      ],
      "matrix": [
        0.0017802053329189977,
        0.0013460289618142877,
        -0.05714367097963827,
        -0.0,
        -0.10369696378108749,
        0.009631755495762928,
        -0.003003609378567009,
        -0.0,
        -0.0035929847565767084,
        -0.03900403922260951,
        -0.001030679619220009,
        -0.0,
        -0.7199307680130005,
        -1.0292003154754639,
        -0.13937528431415558,
        1.0
      ],
      "name": "Cylinder.003"
    },
    {
      "mesh": 41,
      "name": "Cylinder.003_metalBlack.041_0"
    },
    {
      "children": [
        80
      ],
      "matrix": [
        0.001676832251272227,
        0.0012678832142121162,
        -0.05382585318976229,
        -0.0,
        -0.0976761943127729,
        0.00907260043281661,
        -0.0028291905466002517,
        -0.0,
        -0.0033844002048437918,
        -0.036739414391276454,
        -0.0009708412430946082,
        -0.0,
        -0.7206554412841797,
        -1.039790391921997,
        -0.38599881529808044,
        1.0
      ],
      "name": "Cylinder.002"
    },
    {
      "mesh": 42,
      "name": "Cylinder.002_metalBlack.040_0"
    },
    {
      "children": [
        82
      ],
      "matrix": [
        0.00173232794071502,
        0.0013098402899589141,
        -0.055607184369342866,
        -0.0,
        -0.10090875811738505,
        0.009372843227070519,
        -0.0029228261654067962,
        -0.0,
        -0.003496400495448209,
        -0.037955284949688306,
        -0.0010029688491999238,
        -0.0,
        -0.7215043306350708,
        -1.0521982908248901,
        -0.6147565841674805,
        1.0
      ],
      "name": "Cylinder.001"
    },
    {
      "mesh": 43,
      "name": "Cylinder.001_metalBlack.039_0"
    },
    {
      "children": [
        84
      ],
      "matrix": [
        -0.13983519375294337,
        -2.8782899244688077e-07,
        -2.8535042005499455e-08,
        0.0,
        2.495665025345194e-07,
        -0.1212462410327699,
        1.1068057512717611e-07,
        0.0,
        -3.430299840692674e-08,
        1.5345073775160927e-07,
        0.16809935867779055,
        0.0,
        0.003302246332168579,
        -0.8318092823028564,
        -1.1413503885269165,
        1.0
      ],
      "name": "Cube.005"
    },
    {
      "mesh": 44,
      "name": "Cube.005_metalBlack.038_0"
    },
    {
      "children": [
        86
      ],
      "matrix": [
        0.0003668286908564029,
        0.006960565086418213,
        0.0002993500633849126,
        -0.0,
        -0.2132320083009411,
        0.010940047076532485,
        0.006917348557129105,
        -0.0,
        -0.003477445503066061,
        0.005143158892005296,
        -0.11532873935552754,
        -0.0,
        0.02718624472618103,
        -1.2279434204101563,
        0.16318480670452118,
        1.0
      ],
      "name": "Cube.002"
    },
    {
      "mesh": 45,
      "name": "Cube.002_Material.022_0"
    },
    {
      "children": [
        88
      ],
      "matrix": [
        0.0003668286908564029,
        0.006960565086418213,
        0.0002993500633849126,
        -0.0,
        -0.2132320083009411,
        0.010940047076532485,
        0.006917348557129105,
        -0.0,
        -0.003477445503066061,
        0.005143158892005296,
        -0.11532873935552754,
        -0.0,
        0.0020653903484344482,
        -1.2101194858551025,
        -0.4099351465702057,
        1.0
      ],
      "name": "Cube.001"
    },
    {
      "mesh": 46,
      "name": "Cube.001_Material.021_0"
    },
    {
      "children": [
        90
      ],
      "matrix": [
        0.0006508092477957041,
        0.012349088937261344,
        0.0005310918792470721,
        -0.0,
        -0.26903033912931235,
        0.013802827306107017,
        0.008727474162790076,
        -0.0,
        -0.006169512725622188,
        0.009124735919951811,
        -0.20461054614944765,
        -0.0,
        0.01718980073928833,
        -1.1906712055206299,
        -0.10815601050853729,
        1.0
      ],
      "name": "Cube"
    },
    {
      "mesh": 47,
      "name": "Cube_Material.020_0"
    },
    {
      "children": [
        92,
        93,
        94,
        95,
        96
      ],
      "matrix": [
        -2.8592308295925974,
        -2.3207725259956833,
        54.39545113624634,
        0.0,
        -32.55799607023233,
        0.5288917233048961,
        -1.688806450065035,
        0.0,
        -1.1498615438181574,
        -82.17173596034382,
        -3.566283995330646,
        0.0,
        -104.64820861816406,
        204.13729858398438,
        9.760326385498047,
        1.0
      ],
      "name": "Cube.006"
    },
    {
      "mesh": 48,
      "name": "Cube.006_Material.017_0"
    },
    {
      "mesh": 49,
      "name": "Cube.006_Material.010_0"
    },
    {
      "mesh": 50,
      "name": "Cube.006_Material.019_0"
    },
    {
      "mesh": 51,
      "name": "Cube.006_Material.009_0"
    },
    {
      "mesh": 52,
      "name": "Cube.006_Material.018_0"
    },
    {
      "children": [
        98
      ],
      "matrix": [
        -1.7803779421285555,
        1.944245280461708,
        3.292395777784911,
        0.0,
        37.78852073588141,
        0.2252955072623697,
        20.301271040414164,
        0.0,
        16.47941592217356,
        68.31886288175612,
        -31.432745363010827,
        0.0,
        -25.464006423950195,
        -408.0712890625,
        65.65508270263672,
        1.0
      ],
      "name": "Cube.003"
    },
    {
      "mesh": 53,
      "name": "Cube.003_Material.058_0"
    }
  ],
  "scene": 0,
  "scenes": [
    {
      "name": "Sketchfab_Scene",
      "nodes": [
        0
      ]
    }
  ]
}
